<mxfile host="Electron" modified="2024-03-25T22:06:50.997Z" agent="Mozilla/5.0 (Windows NT 10.0; Win64; x64) AppleWebKit/537.36 (KHTML, like Gecko) draw.io/24.1.0 Chrome/120.0.6099.109 Electron/28.1.0 Safari/537.36" etag="FhNFr0MYQj50upxu7O86" version="24.1.0" type="device">
  <diagram name="Page-1" id="EmwzgHjXN4L9OG_YRLbm">
    <mxGraphModel dx="1123" dy="556" grid="1" gridSize="10" guides="1" tooltips="1" connect="1" arrows="1" fold="1" page="1" pageScale="1" pageWidth="1100" pageHeight="1700" math="0" shadow="0">
      <root>
        <mxCell id="0" />
        <mxCell id="1" parent="0" />
        <mxCell id="kKCmZU7g9CsREEnNZsZf-6" value="" style="shape=image;html=1;verticalLabelPosition=bottom;verticalAlign=top;imageAspect=1;aspect=fixed;image=data:image/png,iVBORw0KGgoAAAANSUhEUgAAAF0AAACACAYAAABp0WUyAAAABHNCSVQICAgIfAhkiAAAAAlwSFlzAAAFrgAABa4BrQQaEQAAABl0RVh0U29mdHdhcmUAd3d3Lmlua3NjYXBlLm9yZ5vuPBoAACAASURBVHic1Z13nFTl9f/f996507fvsmxhmYEBRFF6ExWNQsTYYkFjL4kak1hjicYk9qiJ0WjytcUSxYaKoqBBsVBEBAUBaQ47s7vAwvYyfebe+/vjzszO7M4Wdhf193m99rUzd+5T5jPnnuc855zneQRN0/j/BS6H0wxMBWYBkwELIAMGo1G2WS3mHFk2WGNRJSrLhp2Kqq5tbGpZCWx0ez1NP2DX0yD8mEl3OZxZwAnoJM8CJgHG/tQlSdIeRVHWA2uB/7q9nj2D1tEDxI+SdJfDORb4DXARkNXb/aIooqrqgTShAO8C/3R7PZ/0q5MDwI+GdJfDKQGnAL8Fju/p3qKCPKZNHse0SeOYPvlwykuLCUeiBIJBAoEQgWCI1jYfGzZtY+1Xm9mwaTvhSLS76hYB17m9nurB/Ubd4wcn3eVwGoBfA78HKnq6d9b0Cdx49UWMdg0/oDYi0SgbN+/gi/WbWPz+Z+yra+h8SwC4xu31/OeAKu4nflDSXQ7nscBjwDjQ1cQRRxzB3LlzePXV16iu1oWveEgBt1xzKXOPmzngNhVFYdkna3jh1XfZss3d+eM/ur2eewfcSC/4QUh3OZzlwN+B+QDFxcWceuopzJk7B7PZzGuvvc6rr7wKaFx4zilcfdl8rBZzN7VpaKqCpqpomgppr2OomoYAIIoIgoggSMnXG7dV8sRzb7Bm3abUCh8Frnd7PQeNmO+VdJfDaQJuFAThT5qmmXJzc7nk0ks48cSfIggClZUe7rzzLvbV1jLpiLHccdMVjBrRVeNoaGixCEokhKZEGMh3ECQDL771ie+xZ16zxWKKEL+8ALjU7fV0OxAMBN8b6S6Hc54oiv9WVdVhNps56+yzOPvsszCZTFTX1PDRh8t5d/Fi0DT++Ptfcdq8Y7vUocbCKJEgaiwKDG6/N22tDP76tkcNoXBEjl96HzjD7fWEBrUhvifSXQ7nr4AnAWHYsGH85c4/U15eTktLK+9/8D927apkzepV2G0W7elH/iyMHe1MK6+pMWKh9jjZBw9bdni46tZHY8FQ2BC/9JTb67lysNs56KS7HM6rgccBYebMGdx8y81YrVYqKz0s+3A5oVCINatXYzZJ6vOP3yWWlxYny2poKOEASjjAYEt2d1j/zU5+fdsjmqpqCVVzntvreWUw2ziopLsczivQJZzzzz+PCy+6EE3T+OKLL1n/1ddomobHU0lT3b7Awucesubn5XQU1lQigVY05eBKdya8+OaHPPLMW4m37cAUt9ezc7DqFweros5wOZw2QRD+CjB79mwuuvgiAN7/4H+sW/8Vmqbh8/lw79wZfeyBW38UhAuiiGzJ5vKLz001T7OA1+N+n0HBQSMd+JWmaXmFhYVcc+3vAFi7dh1btmwlEg7T0tLCurVftF96/qnSoWNGJAtpmkrE39wj4YIgdPtZfyFKMkZbPqJsRhAl7rn9t1SUDU10YjzwyGC1dVDUi8vhlCVJqlJVteTa664FTWPlqlVs3rSZSCSSvG/okIKm91//d74sx8ctDSKBzIQLCIhGC5LRgiBKaJpCLOhDjYUHpc+yNZdwTGPhO8tYuWYDggDRaIx1G75Nve0wt9ezdaBtGXq/pV+4SVGUEoBH/pEuIIIgUFFRQVVVFePHjbEnCQdiYV9mwgUJ2ZaLIErs3FXN0mUrqKndT35ODhefcRxFBb36xHqGIIIoccPt97Pyiw093fkr4PqBNTbIku5yOK3AE8CFqdeHDi1m8pQpTJw4gQkTJpCVlcUZPz9Tzc22if974/8AUGMRooGWrh0UDci2HILBKA//+78sXPwhitLhUTSbjCx65k6GFOb2u9+CJFNT5+O0C67jsNHDybJb8e7ez/765s4Tr0agzO31DOjxGjRJdzmcAvAhcGSycoOByy6/jDPO+DmCINDc3ILXW83uPXuwWi2xPbV1xqbmVvLzsomF2jPWK9ty8PlDXHnDPWz6VjcgDJJEfl42kWiUcCRKW3tgQKRrShRZC/HcwzdxxNiO8aWyupYH//0a677ZkbhUAJwMvNnvxhhc9fILUggvKSnhttv+wOgxo6n0eFixYjWtra3Jm+32LGN9fQOV3t3k2keiqUqXCkWDCU0TkoTbrGbOPOlozjvtJxQNgORMKC7MobgwJ+3aiIoSnvjrdZ1NyBP4MZDucjiNwD2J99OnT+eWW29GURQWv7sEj8fbpYzZrFtgOTlZ8clPV0iyibeXfMymb3eSbbfy9IM34nKWDkaXDwgXnjkHt3cv7330BcBPBlrfYJmMxwNOAKvVyo2/vxGA1994KyPhAMFgEID8bCuqGstcqyDy3MvvYDLK/OMvV/8ghCdw45VnJ0zV0S6Hs2wgdQ0W6TMSL8459xysViuL312C3+fvtkAgGESWDdjN3XehpbkFT/Vezjv9eCYcNnKQuto/ZNutjB5Rnng7eSB1DRbp0xMvZh9zDF999TV1dfU9FggHgwwvL4HupBwwiAqjRg7jkvlzB6mbA8OUI0YnXg7okRss0icBWCwWhhQPYcu3vc8fgsEAo3p5Sk2yxCuP347dZulTJ+obupqcA0Frm4/K6trk+8kdpJcMpN7BIj0boKKigj179+L3d69WAKLRKJFojJHDh/ZasdBH76JokHntvRWEQoMzQxUEgZy8Ap56eUny2vhDk+Zk7x3vAQMm3eVwlgKmxPue9HjynviPMnL4gAQGAMlgwphVgGzNw2rP4p1la3ots+KLTXy44qtuPxdECdmWj8mWw7c7qtju1mO12Vm2xGD6w0m6y+GcAHyZeB8Oh4l0n+qQRCBOussxICMAQRQxWLP1uCfwk6On8fzCZfgDPQd7ZNnAog9Wdfu5ZLYjiHqdI4aX8n//fRcAURCwmE0AwwbS736T7nI4TwVWAUnmwuEw4XDvj7eqqZgMBkqG5Pe3eQAEyQh0eBzHjHJSVlLEY8+93WM5Z8VQvty4gw1bumQDAAKi1JFEdvLcWaxat4Vvtu4CIEsfXw53OZzj+9vvfpEeD04sAmwAUvx6KBwiEo10Wy4B2SBTaDUP2EWrRkNoSrr1c82vzuPNpStYu2F7t+WKC/PIslm4958LiMY6z4Q1lLAPJRwg4m9i9tRDycm28++4tNvtFtC/8qp4CskB44BJdzmcxwP/SpQ9yWZhpFGP5YZDYQySgdravXyzYQNrPl/N1m+/Ze+ePWkuXYPBQFNwcOK9EX8TEX8TUX8LEV8zR4wq5sjJh3HDXU+wY1dNxjKCIHDGSUfhqdnHCwuXpX0WDkf5Zss2Fr//MY8+vZDf3fE4oVCY9d/sYNt3VditSUvKDrzpcjhHdK6/NxyQGyDewOuJchdm27k2N5ubGprYGYkSDAa56847UZQO6Wlu0pNlLRYLU6ZNIysrG1mWCUZjNDS1Upifk6mpPiEQDPPm0pUMLy/GUV5MXm4W7b4AJpNMKBTm3Y++YMzIzOr3F6cfz8uLPubZV9/np7OnMKy0CIDK6r1cfO0DXe4/+2fHcIirovPTmQ+843I4Z7q9Hl9f+91n0uMZtIvjDXG0xczvcrNpU1W+CetSrGkaiqJgNpsYXl5CSXEhzS1tfPPtToLBIGtWr2bylKnk5edjkCS8NfsHRPrm7R4eeaZ735NrePdzmMK8bE6beyQLl6zg/sdf5t/3XQvAmJEVnDnvaNZu3E5jSxvTxh/CKXNmcOzM8QiCQCymIAoCpZLIbl01jQNedDmcZ/Q1QalPpMfdti8ChwE4ZAP3FOQhAs+3+WhK8W/PO+Eobr32UgryO7yAm7d+x6+uuwufP8DOHduZOeso8vPz2emuYsr40fQXE8e5uPjsubz01kdpPnaDJHHrb37B6SfO6rH8tZefwfpNO1m7YTtPLXiPK84/GVEUuO2a87otE1MUbJLEbXl2bmpsxa9qAKcDdwJ/6ku/+xTEcDmcdwN/BMgSRV4YWkiFQf+9zt9Xz464mXj15edw9WXzAdi3vxFZNlAQl+TlK77k2j88gCAIHD9nLpW73IzIt/LAXVf3pZ89orXdz+7aBhqaWsjJsjOsrIiC3Ow+la2sruXCax8gFApz902XctJPpvV4/zm/vof2/Q08mWvn63CUu5vaEtM3DZjv9nre6K3NXgdSl8N5NnHCReDegrwk4QFV47s44eMPG81Vl5xFTFG47tb7OeGMK5h9ymX88po7qKmu5rhZkynIz0HTNHbu2M7+2lqqdu/rrfk+ISfLxmGjhzN7xngmHDayz4SD7jO/PS7Zd/3jv92YkR1QFAVb/PtPMslclGVNfCQAz/fFlOyRdJfD6QKeT7z/TW42R1qSk0/WhoMkHuqLzj0FURRZ+r8VtLa1k5djB+CLr7Zy5e/vp62xluOPngJAdVUV/kCAmqZW1B9BfvxJx03jrJOOIRpTuPHuJ6nZ272zLqYoWFIMhZ/bLRzdwYkNeNvlcPboLOpN0u8GrABzrRYuzrYnP/CpCs1xG1cQBKZNHgfA5PGjeeKv15GTZWPsqOHMP+VY9uxrYMGi5ZwwazxZNgvFRXkcO3M8Lz9+G+JBSKfoD2686mwOHV1Ba5uPa//0OC2tmd0ZgUAIi5K+6uN3OTZGdATYHcA1PbXVrU6PT/G/BoQcUeSd0iHYRf03imgq9bEomyJR7mhsw2I2sW75ywDEgu1EQn5mnX4Ni5+7hyGFudz72AJ2unfzwqO39JGCHwb7G5q54Lf309TazpiRw3jygesTM1AA2v1Bjj3rBmZbTFyfa08rWxVTuK6+JaHfm4ERbq8no9uzJ0m/j/gc+9Jse5JwBY1GJYoGWONSGgyFaWzS61fVKHv3N5KXm5UMFv/u0p9jNMldW/ieIUo996G4MI+H7rgSSRLZsauGfz77VtrnlVW6mzdH7Pp0DjdIHNOhZvKAm7rtR6aLLofzGGAeQLEkMT/LBujDc1MsihL/OfOljuI1e/brLxQFo9FAaj5Ltt3Kbb/r3gz7PiDJFmRbHrK153nBhMNGMm6MnjWcm5WeT+OJ+9ZTVEkazsuyYuj4Pa51OZzFme7rTtLvT7y4MicLY1yi21WFcIo6yhNFyg265+XzLzfqKyLQKC7MY2hRujPLOWxALugBQ5TjTqw+jNvtfj1+O6KTv39X1V4AXN2QXiyJ/NSaTHm0Ebf6uvSl8wWXw3kK8VQKp2zgZLtuEilotGdIk5gYVxsvv7GUcLjDv3L1Rad2952+d2zaVok/FCUW8hENtnZ7n6KovP3Bairj5E46fFTa55XePZgFgTKDlKk4APPtFswdxsEVLofT0fmeNNJdDqcIJBc6XZ2TnbyhVVEyLjOZZNIlqKXNx5tLPtFT1OAHDySn4p1la1i5ci1KJHOqRygc4bXFn3L6L//M3Y++xBFjR/DMQzdSXJiXdp+7cg8jZAM92Vs5oshptqS0G9FnqmnoLOlnAIcDjDMaOS7+qIRVlUAGKQeYYJIZGX/cnnj2dar2NvbQpR8GwWCIV99JT8cD2O6u5rHnFnHSRbfz4P+9hkk28Lc7ruS5h29i4jhX2r27vHtpaPPhkruX8gROt1vI7hhsL3A5nGkS2Fk5nZV4cVVuxyDS0kPEXgDOz7JyV1Mbza3tXPH7B3n6weupKBvS5d7lqzZgtdk5ctLoAS3OOlD87IQZXHPH45x++Z8oLykiEo2yv76Z2jrdA1pUmMsfr7mAU+fOREoxDtp8AT5c+RU//+lRfLjya6B7fZ4KiyDwc5uFF9oDoAv2mcCDic+TLbgcTpm4xZIjikzTw1KEVJVoLwRNMskcZdHVTENTC1fe+ggfrfw6OdvcssPDlbc+ws33PsXKdd8iGW29dnwwMWvKYUybcAiqqrGvvok2X5CKsiH89tLTefHRP7D0hfv4+bxZScL9gRBPvrSEky++ndwsO6IosHylHlMd2QfSAY5KmbkDp6W+Sa3hWOJR/aMs5uSv0d6DlKfi+twsVK2dz0MR6hqaueW+p7GYTeRk29gXlyiL2cTF556KaJBhcIL2aVi1bgs7K2v46TFTKSspTPvs/+6/ttfynpp9vLV0Je9+uEafCM0cz/FHTaSyupbKmn3YRYHSHgbRVBRJIg5ZwhtVAGa4HM4hbq+nDtJJT/4as+MLZSOammYi9gQJuDEvC0OLjxVBndFgKEwwJSXiz7dcRUX50IzJogcKUTZhMGfHFwe0oylRjpo6jqXL1/Kv5+8gL8eOY9hQnBVDyc/JQpZljLIBo1HGaDBgNBo4dFQFFouZvz+5kG93eqlLyZs5xFXBvTdfCsDyVbpqmWE29jiIdsY0kxFvNAi6RjkZeBbSST8FQBYEZsRVi+/AdpZAAm7ItTPfbuGjQJiPg2Ha4nWUFBdy8txjAD2KLwjCwBbdCnod+gLeKDFFwSBJ/On6CynIz+GtpSvZsMXdo9fwsnPmccyMw/nk841p1ycdPor7br0cc5yHZcv1hIdjzKYudfSEqWYjr/uCibenESddhKSfpQJgismIVdRTfIL9lMhyg8Ql2VaeK87jiHj8tK6hOSWMJyD0MiXvDZqm/5hKJMTbH6xm3vl/oM0XwGwycuMVZ7Hkhfu49JwTe8w4aPenm5BF+Tnc/rvzeeqB6ymKxwE+Xr2Byr115Ikihx+gK8MlG8gTk8PmnIT3MSHpSdVyTNxMDKnKgFduSsAUs5FNkSiKouCtqWWkQ0/CFCQZYpkzB3bsquk2tpmApsT0J0VTOWXOTFas3czfnnydO2+4GEEQyM2x8dtLTuO3l5xGS6ufbW49aailPUAsGiUaVThk5DBKigt46I9XcNgYRxe7PBZTeOzZRQDMshyYagHdsptqNrJMz8OxAHOAxQnSk9PHY+L6PDRIJt34FOn4ZOW6JOmiQUbpZjBd+smXiKLYY66jpipEfPqcQJJE7rvlUs777X3c9tf/cMvVvyA3p8NCys2xMXPyocycfGjGun4ya2LG628sXUF13Ld+rOXAVEsCU01ygnTQhXux6HI484gngI42yhRL+ugc1A5Mn3eH4QaJ3Pgj9sHy1cnrunrJLDtTDh/Nrfc/kzYIZ0RKH81mE/fcfDnLV29g7vk3c80dj7P04y8JBvtnJvn8QZ5esBSAWWZjn+zzTBhvkpO+K+KbBwkjhzsOBzYBnGyz8peCXKKaxv5uHv3+4OEUi2bJq48zfJieChgNtKB2084F19yPy1HGX2646IDaWr7qa/744HNEorqpK0kiedl2srNsZGdZycmyI8sS0aiCoih6ePGXZ3Z5qv757CJeWLgMoyDwr6JciqR+5WUBcF1DK169PzHAKOXn5k4gvhpulsXENLOJgKoSHiRJBxgiiXwY0EkvyMthygT9MRcEETWaOelo9IhyHn7qTew2C+MOcWa8JxNGVJQw4dCRfLrmGyJRXe8HQmGaW33sq2+mavd+Kqtrqdq9n5raeuYcPYl5x6UHo3d593Lnwy+iqiozzEbmWAe2WPrLUIRa3QUhAv82kJKBWjTIqiWBkbKBeVYzSwMhln64kisuPhNBEBANRn0hbgYradwYJ7f+5lzu/ecChg7J59iZfU8dnDJ+DMsWPMCX32zni6+20tDcRigUQVU1HMOKcTlKGekoY2RFCZZOulpRVP709xeIxvQn5eh+6vJU5Kc/JSVppBdKEqqmERlk0gHOzrKwLBhil3c3HyxfzbwTjgJAMlq7Xc54+omz2Oau5vYHnuWpB67nsDGOPrdnMskcPe1wjp52+AH188mX3kumRgNURmPMMPdrV8Ik8sV00kXSSBcJHQTCQQ94DIk/Sf986hVi8aC2KPecSHrTVfM5bPRwrvvLv/l2h/eg9C2BF9/8kP+8+n7atdd9wVTro1/oLOkiKetniiSJyEHy/n0SDLM/TnTNnn28sfhDQM8kEOXuMxYMBolH7vwNFWXF/PKmv/POss8HvW+apvHCwmUda0UFoSPSBDzR6md1qP+GRV66pJdKJXl5NytQKgC/y80mqKnEBpF4n6rxRKufV33BtMnWt9t3ce4ZJyIbDIgGGS0aSc4yO0OWDcw5ejLrN+3ktcWf0tzqY8aksYhi/y2KBHZU7ubme59icXwFhyCKlEybS/7oSfj3VqLG9CD8mlAEkyAw1njgM+mgpiUNCWCblJOT+wcgL1cUuTQnizZVYTAUjAK85w/xQEs7O6JdPZXBUJjtOyuZc+wMDAYDgkFGjXT/GCeI3+Xdy/uffMnKtZvIiTu1+pPnXt/YyuPPv809jy5IekFFyUDZrJ9hL3FiMFuxl47AV+tBjefcfxOJ0qiqTDYbDzjHfLE/+d12S3m5ufcDcrnBwJlZNtqUvrlye8KWSJR7mtr5LBgmEhdvQZLIdR6GvdRJoF7f5rZ69z7Wb9jKsUdNwWqxIIoSanfTVHTiTzx2KhVlQ1i24ive++gLln26HpNRZqSjFKkXyVcUlRVrN/HIf97ir/96lS07vGlONzl/KEo0grWgGEEyIBnNZJWPxF9bhRIXiMqownfxwdXQxx/bJAos7HB8tQgjhztagJzhsoHXhhaxbwCTolZV5bm2AJ+mzAJF2UjuiMPJG3UEkkkPcrd6t7H/608g/oVNRiMnzT2Kc07/KaMdpWhRP53D9q1tfj74dB27qvaSnWVDVVXeWLIiub6oqCCHIycfRkV5McPLhlBRqkeudlXvZVdVLZXevWzc4qaprfc0ctFoxjHnFxjM8aB8OMDulYsJt3aEIkfIBu7Iz+qsrzMiomnM35fc1PozYeRwxzbgEKsosKy0mIZ+bOGkAf8LhHixPZBIHUYQRXJd4yk4ZEraoJRAq3cr+7/qurewKIqUFBcwrKSQirIhDCsdQmlxAf96/p20NZ2DDRHS1Kq5eDhDJx+H0aL7cJRImL1rlhBs6OhDuUHirwU52DMkH6Viv6JwZV3SV/+qlJ+bewbgjGowP8t6wINoZTTG/c3tLAuEicaLWouHUXbkyWQPG4UgZY60mHOLUJUYoUY9c/foY47h0cceo3xYOe1tfjzePXy1aQer121h2WfraW71IQCjZJkK2UC9ktkLKgAum4X2WMfYlC2JHJKbxU9GV3DOcdPIicb4rlFPgSs1SPw6J5sHivK5PCcLpyzzSTCEEg4iWPU4sdFiRZQMZFeMQY2GCDXXAdCmatQqSufQXBfUxFSWdzz9ywxA8qfbH1PI6eMIEdA0Xm4PsNQfSn45g9nKkImzsZf2vAwnEvQTaGlAs+ViLh5OqK6aL9eu5ev167jkkku46te/BnRTrqW5hflnnoHH4+Xewjzmxtf8+FSVL0JhVgbDLA8Ek15RDbAZZR771VmUOEopKi/GFM9H9DW2ctvv/8bqfQ2YBIGrcrK4MMuW1M0aGnOsZp5rk6mMRogFfPgRiIYCZBWVIRlkhkyYjWzNpn6zbrp+EYrQpKidbfE0NKUHg2qFkcMdD6Hv6MzfC/MYKffMugp8HAizoD1Ac0plthIHQycfj2TK7KfQNI2wr5VAayOxSPpgqYT8CA3VtNXvY8qUycybdxLHHDubwqJCBESmT55MrqrybllxRquhVVV50+fntXY/jSlpFlMLcxlWlE+WzUKW3cJbazaxNxzhSIuJW/Nyk/HOFjVGUFFJPDsvtAdY5AtiG3E4co4eaxUlieyiMoxWPXF0z+r38O+rAuCl4vweVcy7/hD/aUtmAV+QJukNqsLIHoyh9eEIL7QFqElZBiiIEkVHzCJ3ZObptqooBNuaCbY1oXZjGUlmG5SPxZ5ViNu9i7vvvhvD/fczYcJ4Dhk7lnA0SqlJN9MC8dQ+DV0yBcAsiFycbefCLDsL2v083dpOWNNY19DCuk77BYyUDfyzqCD5PqSq+JR038/QeNJ/6nJJVVFo2VeDNScfe34x5vxi/PuqsIlCrzq9s6Snkd4YU1MWnKfjdV+Ql9vTw1vG7HxKps3FlFPQ5X4lGibQ2kSovbXbSU9nGHKKILsAS2MtauNe1q//ivXr9dQHWRDQ0GhWYl10eQAVFLAKIpdk2znDbmVtKMz/tbSTJYrclJ9NsxLjjsZWKqMxvgyFEYFRRhk5w8iQH38COq9RBY1AayPRUJBwm26NDO1mzEpFk9ID6Q3dxESbFLUL4bkjxlF0xCwEKd25Hwn6CbQ2Egl0Nfv6BEHEVFgGBaVITfuI1NcQC/oxCgKa1vP2DNH4p/tiCpXRGO2qyiFGmbFGmdqoxi/sVp5u8/NISxsnWC1owKgMGVvFcf3clfR4O+EAoSY9S3l8H+KmzRlI35t416hklsj6lMdDMpopnvwT7KWpPm6NUHsrgdYmYj3MKg8IgoCxoARj/lCC367BKPT+E2oILPMHWewPsDEcIaRp1MRiNMQ3Rk5kJpxotXC23UpAU/Bl2jssri0S+wNkghrShXC6qXcPZIp6Cbq9nhYDsBuIAvLWbjZTyEqZeVmKStMIV1WFpt27UGMDn8lmhCAgZeXiC7TQi+okpqmMM4pMMecAGo+3+FgeDLE9EiWkaXwcN9ssokBjD/ORQDwB32DPvDmbEvKjqgo5oshoY89hvDZVZU/HGFgJYHB7PQGXw/kpMKdeUfFEYzg7xQNLDRLFksR+RcFf60UJh5JWiihKaOpBzku057G5pQ4Nes2XUSGZ7GoUwK9q3NiQnh69sN3P5rCBIlFkqEFiqCRSJBtILGjZHI4gihKSJX2JSwKxuD7vS/LR+nA09QldCh0pGO+gpwewLhztQjro+YrvB/SjD9pqdpDn6ojkyCYzkWDv+7z0FwZ7Lm2qhjsSJVvUA4294bNQhPdCUcrKyrDb7UyePIlZR82istLDSy++yNL9dV3KWCSJIQaJ+piCaM2GbnwrCdJn9SG4sS7dJfwOdJC+GH2Pc9aFIsy3d/VvTzHLvB/3c7R5t6WRbjBZDirposmCQTayJhRmntVET9o9omk80xZgWSBEWVkZj//rMazW5FpPXC4Xxx13LIsXv8sXa9awadNmio0y1lIHLQjs5o92BgAAE0JJREFUrq1BUSIIgTbUSAjRmD7v0FQVxd9CtigyrpdBNKppbAgn1Vg9sAbipLu9nhqXw7kBmOiOxmhW1S6OnAkmI9miQJuqEW5tJNxSjylX38RA7mZCNJgQs/J5t72Bk22mbjnfG1N4sMWXiLzT0NBAU1MzVqsVg8FAWUUFTU3NGESRs88+i/Hjx/Obq3/DCdf8CWmYPk6F/H6WPHo3/v27CVRtxe6amCbxir9FD1hbzb26dzdHYqn5Q++5vZ5kdDqBxaB/n3UZoiQScFRKLl+rd1vytWyydrl/sGHML8YbjbEj3HUA1IDPgmFubGilOhrj+LHjmF5aTjgc5u9/+xuqqpKbl4/7OzdTJ07kjTfeYLhzBAaDLqliQVGyLrPNxs9vuZc8x2hi/jbUSDCtrWj/VcvixIsupAN8Gco8sh9r7SC9vea7ZBRfNBgQpf4l4/QVhqw8zLKRFSlfpElRedsf5Nd1LfyjxYfNIHHWuZdRdtWtjL7semyiyNat23jjjTcJ+P0Mq6jg4ksu4ejZsxElCdEgYRRFBGv6gClKEmpMwVRYhthJoGJtTWT1QbUArOtYgxUCkhvLJEl3ez1fAzUAmyLRjLHS0bIh6a9QIiF8td4OUgaoYjSlt2RVAQpKWeQPcndTO5fVNXNZXTPPtwXYpyhMGlLMvD/+HfNMfVdWoaiYY6fpu2C8+sqr1NfXYZRl7rr3XsaOHQvoG7hlZQi/fbfuc9r21WAuSc+3UUIBlJCfGWaZ3uahnmiMho55z0duryc5u+yslt4FfTBa1U0gdnaKGzOwvyNVQTb1be/ETIi1NxHYtRGDsecfzlhYiiab+CocSZtaTyspY9ztf0fITXdHFJzzS4ZbLfj9fha/s5i21nQ/jN/nxyank64qCl+9vQBL2cgus+1ok+6GntWHlOmP09P5Fqe+6Uz6i4kXr7QHiGUYsI61dOiyYENyMjsw0n0tKOEgOUOHIfbgyxBlE1mHTMVacQj2URMRJJkRWdmMufHubgpIzDjjIgRg0aJF1NXVsXv3bn4xfz4bvv4av9+H1ZBO+heLXkHVwJjfed2rRqRpHxZJ6jVlul5R+aAjEO1D3++so1upb9xezxfEpb1eUZMmYiqKJYlD4rOwSHtLckfogagXTdX0mKRBJruo520DBcmAsaCEaEs9mhJlys/ORMgQmUrANPVopg8bTmtrG0vefY89NdV8s3Eje/fsoWX/fiwppLc3N1D5xcdYhnXd+CfW3oIaDTPdZOxVtbzSHkhdp/UPt9eTdkJhJqvnduKRq4W+IMEMuj01bThQr0u7KBkQDf0bTEVZ1tchAZKx90dXCQUIN+yhxGzCPLPHUzQBcP3iV0iiyFtvLaK4uJgt27fzs1NOYdfWrWTldEz1V770NHLukIwz0UiT7hecbe5ZymtiCp90qJZG4G+d7+lCutvr2Qy8DLrf4B1fsPMtzDKbkBKbMQyCihFlU8Y4aneI+ZpB06gNhdl417VEN6/vuf4yB+OHllBXV8ey/y0jGNCfTveuXVidYwB98Gyq+q7L4Al6Lny0pQGLKHJEL6rlpfZA6jTifrfX09alP92U/TO6E4y3/aGkdy6BLFFgcrzxVNJ7Gwi7g2gwIhr6TrqcXYhk1Xcv2tTYyKvPPMKWe28gtu2bbsuMOvYkABYuXEhTYwOKolBdV4/10AmE/D6+fON5zKVdB09AV2WqwpG9WC07IjHWdhggu9G3UuyCjKS7vZ5K4GnQV2S8nkHaE3sChFsbkzkhBnM/B1NJOiBJF40mskZPxFSkr+rQgK/r6njliYfYev9NKO6uu1qbps/GkZuLp9LD56tWs2PbNoySiM0xio+ffQxBkjMMnjoiccHKZLVowM5ojCX+EH9vSUvv+Gt3hw32pITvBi4BrB8EQpxisySd+6CvsEgg2FirZ0UdgLSmQ+h1L5auRUQs5aMwFpYS3l9NpHk/mqaxfl8tXz92H4fl5zNq+mxsx5+SHGiPGD8V72cf8vrrC1E1jQp7FjvXfEbDrq1kjZmSsRkl6CPmb8UqismARUjTWB+Ksj4c4etwtIsmiOMml8P5ndvrWdb5gx53q3M5nPcBfwA9tnh/QXZyKYdP1bhgvz4lLjh0GgVjp6KpKvXe7rdb7Q5KoA38bZRMn4sSi9JY/d0B16FGQoTraog01qblu2dLEuOHOyk/4VQMrkNZ/Kff0hoKceSRMwnt3c83tbUYsguwlI/KWK/f8y3Rljp+YjFxfpaVJYEQywIhfBnc2RUVFdTV1REK6QIuCEJY07Sp8XEyid5Iz0HfUmoE0GUbpcvrWmhUFLIrxjB06gkANFTtQO11dpmOmK8FIdhOyfSf9pv0BDQlRqRhL+H63ajR9KwDh9WKClTHB1KLwUAIkexDp3fR5ZqqEmnYQ3CPvg613CBRG1Po/M2KioqYf+45zD/3XMrKyohEItxz5128vGBB4paNbq8nbSVZjzae2+tpdTmcpwOfA/bPgmGcssTp8TyS4QaRRkUh4uuY6YmS3CvpajhIcI8bS/koRKMZJdAOka7jRr8giBgLhmLIKSDSWEukYQ9a/PH3BtLjvMFYDHPJCCKNtajhIKoSRYuEUCOhZNJoArtTMyAEgRkzZ3L+BRdwwtw5GFJMZaPRyF333sOQ4mIeefhhgAkuh3Oi2+tJHhXWq2Ht9no2uxzOi4E3AOG/bQEcBgMTTDLDZQNfh6NEfR2RGdFggF7SIUWTGTUSon3bWoyFZShBP0qgLUlOBzTUaAQtGkaNhFGj+p8WCevrSFVF/6/E0BQFTY0l8yP7ilBtZZ/vLSoq4syzz+bs+fMZ7uj5RPdfXvErnnnqKXw+H8A5QN9JB3B7PW/FdyH9kwr8raWdhwpycKQ4v5RICMloRjL0ZUAUMBWVE6jeTriuY+fnfes/Qo1FCbc16STHIgdM4sHCifNO5K8PPYTdnj5x2rNnDzt37CC/oIBDDz0UOe7LMZvNzPvZz1j42mugk35rosyBTCH/AhwBnO5TNe5rbuc3Kfo96mtFyjcj9TIrVUJ+Ik37iMZTGFLRXtO9LpckiaHFxQwbNozyigrKhw2jvLyc7OxsREnEYDAgivp/Ke6/aWhooHZvLfv21bJn9x6qvF5qa2tpbm5GkCRkSxYGiw2DxY5/f5Ue+5UkXl34OqIosmXLFv78xzsoKCjgxhtvSBIeDod57tlneebJpxg9Zgx/uesuRo/p6jo448wzEqQ7XA7ndLfXsxYOgHS316O5HM4LgS+Aw2piSlouTMTXgjm/OG2X/c4wWqy01mxHDQWQzFZE2YSaPKgbhgwZgnPECMrLyykrL9cJHqa/Li4uTpLZH0TCYWqqvGzYsJFbb7mV/DFTKBjbYSbu+XyJHnRXFEpKShlaMpTDjziCp594kt27d9Pc3MywWIxwOMzFF1xIKBjk/gcfYM7c7o8DmjJ1KgUFBTQ2NoIu7QdGOoDb6/G5HM7T0M/ByN8UjiKgTxCi8cG0J0lXFIWymSd1mblqSoxd7z3LbTffxMlnndVN6YEhoaRycrLjbaYHaoz2XBJR3pqaaoaWDEUURc497xf87cGHcLvdjD1sHH6/nyeeforCwkI0TaO5qRmzxYzF0nViKAgChx9+OJ9++inA2S6H80a316Md8KIdt9ezC32Ne7P+ZXS7PeLTXQxiDzpdiYRp3uOhtW4PgZZ6wr42YpEQgighmW14du060O70HfGxISdH390iNU9HgzRPZVVVVfL1rKOOBsD9nZtIJMyQIUPIy8vjuf/8h7N+fga/vfpqfn/9DTz26D9ZvWp1l+OGxh46NvGyHJgF/Tww0O31rHI5nNOBJaCNApLrhXoL2yWyd1MtaAFAMuCp9PSnO31Ch6TrpEeDPkLtrcQiIUL+NiLRDsmvruoIzow9dCxGoxH3rl1E48lYkiRx6eWXc+nll/fYpqqqHDp2bOqlGcCqfi9Pc3s938UraQY9YRT0FRjdbbTQHTT0JSeVKRI26IhLusFgwGq1Eg35aavfQ6C1ETUWTYuF1lR3kG4wGBg9ZjRV3ioikQPb3CEcCjHSNTLVjrfDAI/GdHs9TS6HczlwVufJxIFCNJqpqsl8cMhgIycnh5Zw+pxAlI0IkgFNiVHd6ccvKhqC1+MlGj9MJRqN8vaiRSx9bwk+nw9N0zhk7CFMmDiRyVOm4HTq7uFgIIAkSdhsVlpb2yB+Ws5ghPDrgJQpt0Z/snVFo5l2v5+mpiby8wd2/lEmpLo7srOzaWtoztgHJeijuqY67Xp2TjY+nw+/34+qqsiyzNnz53P2/Plp9ykxhUg0ghJTkAwS7W36pNFiSZJeDYNDej2AEk0cRtK/ShKZVJ7KyoNCeiqysuwI9U1drgtxI6C5qRmfz5e0y21WfbFXY2MjtXt2I0kSoigiiiJC/H/qX1hTifmjxGIxotEozc3JH/grGBzS24HktLy7/L/ekCTd42HylMxu1oFAS3n6bDY7QoaFCqmWl6eyktLSEvztvqTXsrGxkdLSAzsVc/PmzYlTzhRgIwwO6UlHvRqNIIj9q1IwyMiyjPcgWTBCyuBus9lQVaVLFEhIiQd8vW4d1qP1nTqstoSk60+HpmlEIhGCwSCRcERfhiMIFBYWpi2d1zSNt95MJgIsTuS+DCrpSjSMJvR/QJUtNjyeg0N6Khl2uw0tQz69kCLpe2v1QHRVVRU7d+inuD/yj0f4x8P/IBwOd0nXLiktYcL48Zxy6imMHKlvrbvgpQWsW7cucUty4+jBID15hEvdhhXYMqQv9BWKKFNZeXAmSEIK6Ta7HSXD0pZU0he9tYiFry+kra0jrpw4FzuBktISTjv1VI46+iiKivR8yLa2NjZu3MiCBS+z6ZtNiVvfcXs9ybM4B4P0ZKgoUFdDoK4GOacQc4mz26T6bmEwUuWtQlXVQdnhIhVpkm6zEYt2zddMDY43NTVhMBh8BoPh/Vgstgj9e/rifycA/63dW8vTTz/DO+8s1mSjLNTt74gapeB54KrUC4NBugf4BDgucSHa2kC0tQE5t0gn39y3DY1Fk5lgJMLevXspLy/vvcABIPWUGavNiqIoqOGA7ssPxf8CaTss1cVisTK315NpDcKLLofTDExXFKWstra2FP2IUJMgCG5N03YAO4F1bq/n3c6FB0y62+tRXQ7nHPQjxG6A5CoSoi31RFsaMOYVYRrqRDL3nFKdsGC8Hs+gk56qXhKLBNq2ru2pyJvdEA6A2+t5mnjGxIFiUJ5ht9ejuL2eP6PvknQV8G3HpxqR5jrat63Ft+sbPWrfzR6+Hbb64A+mgiAk94WxWqydP/TRsc91HTDD7fUM/Hy3bjCoitPt9bS7vZ4n0U8bOBU9tppErK2JgHcrbZtXaYHq7URb6lHDgeSMSjTq7tFt23o/jb0/SOh1S3x/gXnz5n224OWX9v/vf+/bhxQPSexyvCcRbDhYOCiZ/PEjIt8F3o0f33Mr8Q3xATRVESKNtUQa4+uGBRHJbE2qn89XD/4+XXozIigKlrikjxjpNBUWFhYDHDJmTLBOX/w1SBHy7jG4JkIGuL2eFW6v5yRgAvAKmbar11SUoI9IfEuP3TU17D4Izi8xfkiKLa7T/b5AUs9NmjwpEYXI61JwsPtxsBtIwO31fOP2es5DP0T2ZPQ8v51AG3TdNuxgSHsiqpVQL8GgP/n9J06YmNjGeozL4Tyo50cc3IVCGRCfCi+J/yUR31v8CPQYLKtXrWL+uecMatuyLBNEj9QLgkAoHEl+/6ElQ0sFQWjTNC0b/alc3W1FA8T3Jum9we31BOMDWCXAms8/H/QTYuSU9UUWi4VQKJTmfjEajYkUhemD2nAn/GhIT8ES0GeEO3bsGNSK5ZQ4qD3LTiQcSUtdsNvtiaypGYPacCf8GEl/L/Hi81WrBrViOWVRV0F+PuFIJC2KXlBQkLBcMu9iP0j4MZL+Gbp/Y9AHU0MK6Xl5+cSi6aSXlAxNJCwe1CXgPzrS3V5PGPgI4Msv1xIbxC1NRFFEimcr5BfkE4lEjQBNTc31C19/4/P1679KHI50UI8D/t6tlz7iPeD0gD/Axg0bmTJ18CJJsiyjKDHy8/P54P0Phv507okhoCj+l8CCbooPCn50kh7HYuI7jHy+enAtt4QFk5+XRywWk0hXJWHgYfS8zYOGHyXpbq+nHlgO8PnqwR1ME3o9vyAt+H0f8BMg1+313Oj2eg6qK+DHql4AXgV+unHDRoKBABbrwHbaUBSF1uZmWlv0yHxeXtps/5H4D/294Ecp6XEsAsKxWIxnnn6mSwJQXxGNRmmsr6faU0lzUyNq3K3cKc0j82ZdBwk9rjn6oeFyON8m5bSx/Px8Jk6exKRJk5k4aSKlZWUUFBR0yZiNxWL42tvxtbcRjofPWlpa2LFjB9u3bWfHjp3s2LEjsUoCYLzb69nE94QfO+nnoKuZHmE2m8nLyyM3NxebzUYoFCIYDCb/J/66wVpgZtwd/b3gx066FT0MeBQwhW73R+0XWoE3gRvcXk/3p30fBPyoSU+Fy+E0AdPQf4ARQAFQIIpikaqquegH2AbQM846//k6vd8MLHd7PYN3bNkB4P8BLPQmdKGwlXsAAAAASUVORK5CYII=;fontStyle=0;fontSize=24;" parent="1" vertex="1">
          <mxGeometry x="440" y="370" width="52" height="72" as="geometry" />
        </mxCell>
        <mxCell id="kKCmZU7g9CsREEnNZsZf-7" value="Jenkins" style="text;html=1;align=center;verticalAlign=middle;whiteSpace=wrap;rounded=0;fontSize=24;fontStyle=0" parent="1" vertex="1">
          <mxGeometry x="500" y="380" width="70" height="40" as="geometry" />
        </mxCell>
        <mxCell id="MoC9TVmtlCLJZs_sMT2R-1" value="" style="shape=image;html=1;verticalLabelPosition=bottom;verticalAlign=top;imageAspect=1;aspect=fixed;image=data:image/png,iVBORw0KGgoAAAANSUhEUgAAA9sAAAFGCAYAAAB67oxoAAAAAXNSR0IArs4c6QAAAARnQU1BAACxjwv8YQUAAAAJcEhZcwAADsMAAA7DAcdvqGQAAHNLSURBVHhe7d0JYFTlvf//L2RPIGHfZBEBwRVFxa1utLVS8brUcttate3l16u2tYvWa+3i1fZa/6221VZrW25bl9oWbdVbrDt1qQuIiCgqBUS2oAIhJCRkIeE/nyfnGU4ms2UygSzvFx5nzjpnJs9853zP85zn9NkdYQAQ8CFBj37w4wAAAADM+vTpE30MP2/1GDmA5ggagOOTaw11dbuCqQAAAADiycvrY3379o0m3X4Qkm0Ajg8Fzc3NbmhoaLampno3DWivwsLC4BnQPnV1dcEzoH2IO8gUcQeZyskpiCTWTZHHHJdwt0m6SbYBiEKBBiXaTU1NtmuXuWQ7Pz8/WAJIT0NDgzvopeygvVR2dNBL2UF7EXeQKeIOMqWyo2Rbx8tKtv3gk25p+T+AXs0n2j7Z1gAAAAAgOSXdu3btcsfP4WNqIdkGEOWDg2q2AQAAACTX2Njokm0dP/uE2yPZBhCl4EDNNgAAAJAeJds+0fbH0NRsA2jFBwWfcAMAAABITol2uFbbH1MLyTaAqHDCDQAAACC5cJIdewxNsg2gFRJtAAAAID2xiXb4kWQbQBs+SAAAAABILJxoxyLZBgAAAAAgS3zyTbINAAAAAECWkWwDAAAAAJBlJNsAAAAAAGQZyTYAAAAAAFlGsg0AAAAAQJaRbAMAAAAAkGUk2wAAAAAAZBnJNgAAAAAAWUayDQAAAABAlpFsAwAAAACQZSTbAAAAAABkGck2AAAAAABZRrINAAAAAECWkWwD6DR1dXX2rW9da2PGTGkzaLrmZ8u2bZX22c/OcdtevHhJMHXvu+WW290+6BHA3ue/g4mGBx74W7Bk52lv7NM+pbssOo8+6yuvvMaGDt3fTj11pq1a9U4wp8X99z/o5mkZ/i5IRMcgfJfhkWwD2CfuuefPNmnSEfs0Me4I/Wjqx/NjHzvHVq9eE0wF0NP5A+lMT6i1J/Zp2euu+yEH6fvA8uVv2UMPzQ/GOpeSeiX3HUnis7ENdIw/Ljj33M8EU/Yujku6JpJtAHvFrbf+2Navf9sNDzxwbzDV7Gc/u93VSnc3GzdusiVLXgvG9vjqVy9z71GPAPY+/x1cuXKpffaz/+6mhePPueee5aZl6vnnXwqepac9sU/7q/3Wsldeebmbtn79Rtu5k+RpX7jxxp/YokWLg7HOs3TpMpfcd0Q2toGO+dWvfutOkEn4e6/v9KGHHuymd6ZExyXYt0i2Aex1Rx89LXrQ+cwz/7TVq/c01YttfhWv9ii2mWiiZqE6s6szvOFlw9vz8zU89thT7lHz/dnh8Hpqou4PjLWPqkF488233aDnvomY3zc9+vcSPsscbu7u9zv29cLLh/fRTwPQMf575b9z/vvrxcYhfWffe+99t9xNN93qltGj5qVTQ+0li32JHHPMNBs4cEAwhr3lnHNmuUf9nSsqtrnniSghV/NyP9x8c0sZ8bXN4Wna1uzZF0Wnabj00q+5eXfeea8rU2quHk94XT/otZNtQ/PCy2t/EjWP16CacbWm0HO/z6Lvh29in2g7vZl+219+uSUWKNEOn9QrLCy0Cy74d/foLxlRLPnDH/7cKoYkOxaQ2GOf8PxkxyV+fnjd8LEQOhfJNoB9YsKEA+yUUz7knqvmRvRjENv8Sgc6/kfB/xD5g91Utm3b5n50wrRubHKuZebM+VJ0WdUi+X3ydGD8ox/9tNUBeSr+PWq7y5a94abpYGnz5i128MFT7PDDD3Xb04GNPxsuWv6yy75Ocg10An2v9P0Kx4Zwc+14cSib4sU+zzcx18GwYpUO2mkls2+cdNIJdvHFn7F//ONZ+93v7g6mtqVk98wzzw/GWqhGXInqxIkHRH43vu+m/e1vj7jkdMGCZ9w2te0vfemLbl469NtxySVfdeumS+V506b3grEWqv2+5pr/jp5AUKLtE3VRsv6LX/wqGGuh7XznO9e7eZ62o99NEu4WOnGm4wT/256KvutXX31tMNbyGSc7FtB8nfAL0/xrr/2fNi1kYqU6tkLnItkG0CXoh+Qvf3nIPffNr55++hH3w6WzxfoxeeONN6M/RKod0jLLlr1kgwcPctNiqRbJN+PSoO2KDo70emFqsqlldGCrWqR77pkbXc/vh5pnqZmWtuunadDzH/7wOnfWOkzbUa2U+NdU0q0fyGnTptp++42MvicdfOu96PW0L1pGy06YMN4ee+xBN+g5gI6ZP/8R9/3y33l97/T9899vnwCHm3QrHowYMdx9z33zbr++4kFnufzyb3JAvI8UFxdHkts5dsghB0UT5ViK6fPm/dU9/+Uvf2abN79rL764wK2zcOFil9Aq8VJireT0jjvmuuU1X9vWb8YVV1zu1hUtpzJ1/vnnuPEwbeuDDza7dfUaei0N06cfnXAb2v5NN90QXXbFilfttNNOdgn7qlWr3f6/9NIit97VV3+j1TJh+i1Soq3pmq/ltLzek5qvY8+Js6FDh9igQQPd81T8cYxiSKpjAf0tFX80XYOPW76FTKLjEkl1bIXORbINoEsI1ybrAFM1O75JlGqCdaARPgj21z8poT355BPd81jhJtsatN149KMza9bMYKxFuLmW349MnHjice5R+679UdItn/jE2e7H078n/WAefvhx7vV8zf26devdI4DsUHLha4f0PdP3Td87ff/0HVdrmDFj9nPzdeCrWubwJSSdLZzg++bm2k/VTGHvU830l7/8n9FEuba2NpjTorZ2ZyROb3DPVTus5tXHHz/DLa/EWL9bivM+aVfCqkRX29S220MJ3LBhQ9229Rp6Lf97kky4ifjkyUe2qhkP779q8kWvM3v2ee6555fRutqGtqXae1m7dp177O183PDHK6mEj2MknWOB8F0LfNxKJZ1jK3Qukm0A+8TTTz/nfiiU6OrMvwK+Ar/4s71+8LW6/gdHNUw6gElGB9Vq9q3X8GeKfc12KvpB8z9y2hd/FjgTvsmo9mPZsuXuR0/jmi7+PYUPsv1A81Egu8IHnr6WJzyodkiDrzUSfXc/9anPZe2yjtjYl0iy5ubYe2bNOsPVFitRvuKKa4KpLfS7paRaHn74flfj6wf9biRKqDNJUJUEz5t3l6tR9tR8PdH13aJk3DcRV813bK2133+dCBg0aE8Lsdj98+O+1jz8PlWrDp34H+i+074mur1SHQvohJuvMFDsCseoZNI5tkLnItkGsNeFfzR8c2odSKj5lajJk5Jl0QGuOi8TX0scrulRjdOzzz7vnof5g2r9+F133bddDXi6NcV+Of2g6cA73rXf6Qo3JddtZHSQHe7waOzYMe5RtWhqRubde++8vVabBvQWRUWF0RooxRn/HdOjvnOevp9qOu4PaH2td0fFi32J+KRc/D5j79OJ3diaXs/XNouah/vfLTU5f+SRJ9xzTVOtuGqkVaOtxLYjvZwruVWS65PuZIm7r5HWsmpWHj45IOHacn+bMy2jJvBh48aNdY864RBOJO+++49ueZj7Lus7LfqOh/uGUXxRazlfPuJJdSzgT7ipabk6Xwsn0cmkc2yFzkWyDWCv8M2XNPiOOnQQe9VVX3cHMzq4VdNq8c03fXMn33RPTa501le0Dd+UauvWCjctHh0kaxta1tdWp8vvc7zOkvwPmN9+uNfPWP4kga77Ez8up556UvTstH9PGv7+98fdNP0g0hs5kB2KNT7OKJH1zTX1uKf2p21TTZ20U82V+INixRMtk6qJd6rYFxaOfT4pj21uir1P10WHa5Q9/Q74RFyJqP5uvil5TU2Nmz5//qPR652/8pVL7KyzWi5ZCifnY8eOdo9+G/Fqq5XA67fGNwn3zbh9IpxsG1rW75cSay+8/36Z2KbmMmPGKdEacdWm+33wv2loiS1z5nwu2gou/L1XHInt3CxWqmMBz8cd3xQ8LN5xiU4wpjq2Quci2QawT6jWWDVHvoZXdLbWX6fo6cdHP0KiH7Nrr/1WNOH24tX6aLtf+9qeZtg6G5xuM/KLLvpM9EdPj9on/wPqxW4/mXBzUD36JuSi7cyd+4s270k/juHPBkB2hDsS8vQ8tt8GT/Nuv/2n0eaWM2d+tM33tT3ixb5E9DqKebFJOfa+z3/+wjYdh4lqjNWEPEzLKUENN+NWUqtk6OyzZ0Wv377ttl+7eYmS+VTUNNx3phZvG74JvOg1tZ+x70Hrh9fTNmO3o/2+665fR7fl+feEFr5DU9+JYpj+Psm+x6mOBcJxRzFJxyX+uMLTcvGOS1IdW6Fz9dkdETwH0EspDDQ3N1tTU5M1NjZafX29FRSURMbrLT8/P1gKSE9DQ4M7qKDsoL1UdlTbR9lBexF3skMnCPytzJScK0ns6Yg7yJTKTk5OgZWXr7OioiI3FBQUWF5eXmR6jvXt25eabQBA16MDnyuvvCbaXDE8JOsQKBHd81br6lF8D716jUTN/3VN3OzZF7nlMr2+siNi9zlWsv2LfX+ar/FEQ7LPAUDP5WOFH3yirVrsdO4XDSA5km0AQLeiZpmZJNwAgNTUlFz35+byBaDjSLYBAF2aDvzU+274tjXtvXWO78G3t96mRk1B/a169HlK+DY+HFgDvZOu2faxwQ/+OnAAHUeyDQDodk466QT36JtHqzm1vwVNvGmpmmRLbNN19RacSrzm7uHXDTf11q2cwssmavqtQcvt2NHSmzEAAOieSLYBAF2amo0rAdUtaXSP2BdfXNApnfaoZ2D1EOx997vfb3MLnFi1tTuj97L1tM4NN/y4zTXQn/zkha22r1u4hE8Q+F6LRcv94he/CsYAAEB3RLINAOg2dI9Y3Ss2tla4o3QPW3/PWPXAq6aUsbfziUe3vZk3765o80udCNAtdhYvftU2bCgPlmqh2+mEt6sTB0q2lZT7WnS/TLjJPAAA6J5ItgEAXZq/ZluDv/9ruFY4GyoqKlwirwR34sQJbpp64o29r2w8vom6Bp0I0Hbi8U3ftX29jpbT64Zrx/0ySuJ1D9uOGjlyBNdiAwCwj5BsAwC6DZ+M+lrhbPHJ7tixo624uMg9j9dEPJaus77xxp+456qx9jXb7aH3ofej9QYNGhRMTd0JnPZT+yux+9neDuQAAED2kWwDALqFcHPrYcOGutpfJadKUnWd9KpVq9285557wT22h09ada30smVvuOfaXqprtn1Sq9p3XUfua8jbQ+9D70frPfTQfDdNCfjChcmbyqvGWjXXos/Fn3wIN4n3JycAAMDeR7INAOjSfAdpY8ZMiXYwpibWLcl2S6IqZ555vlvO1zS3h2/aLX47ekyX38f2rOPpPRx7bEuHb9p3bUedwaVK9OXss2dFTzZoHa3rm7KrCbyawgMAgH2DZBsA0K2oFtnfB1aJ6pVX7rl3thLM++67OxhLn7Zzxx23tOqU7K67fpOyk7LPf/7C6DJ6VFPy9jYjF93/21+PLnoeHk9k4sQD7K9/vbfNfmpd7p0NAMC+1Wd3RPAcQC+lMNDc3GxNTU3W2Nho9fX1VlBQEhmvt/z8/GCpjlm8eImde27rzqY++9l/t2uv/ZY98sgTdvnl34yOd0aC8MADf+v018jULbfc7jr8Crv11h9HPq+zgrGWJtTXXfdDu+eePwdTWjzwwL129NHTou9PDj54it1++09twoTxbly2bau0r3zlSnvmmX+68djtZ1NDQ4P7fLNVdtB7qOyorHek7ITLuv9+9CSrV6+xyy77unse+z3vzTor7ujyjEsu+aprPaKTadm87aD6fFCrGJ0k/MEPvsfJsX0kG3FnbwsfU51yyofs+9//rrtdZXeJez0ljqns5OQUWHn5OisqKnJDQUGB5eXlRabnWN++fanZBtC59AP2rW9d2ybR7un0Q6hmz0qkE/GfTWyiHUvbmjTpiDaJdiJvvvl29Lpjb/Xqd6KJNoD40vne7k1dbX8A7HtKVL/97euDsa6vt8cxkm0AnepXv/ptNElUber69W+7YeXKpXbooQe76T3R88+/FDxL7I033ox+NjoT7T+bp59+xIqLi9308I+qzl4vW/ZSdDmtE+uss2a6R92HWsm8p/1Rjfcpp5wYTAF6poEDB0S+V3Pdd6S9tTvpfG/3pnj7oxqgxx570A3UagO9z7Zt29xJdX9MoHg3fvy4jONeZ+vtcYxkG0CnUXPOl19e4p7HNltWc7kLLvj3Ns3mFi16xZ0B1aBa33DC6GuC/fyPfewcl4yGaVzT/TKf/ewctx+x/JlWDeGzrWqO7adriN0HLRu7TnhabG21HjVPr5cu/fB87GMfds9VQ+1/VH/+85tcIuHpBzX2R7WsrNQtu2TJa7Zx4yY3zf8ddH1vWVmZmwb0VCrv+t6Hv3fh72j4O+6/x6m+t7FxJRwXwq/32GNPued+vn9dP6Qbs9577/2E++OXj91Wqtjl52v6s88+n3K5RPN7Or3XK6+8xnU2qMHfASGWev0/9dSZ0eW0jv+c/DwNOvE5e/ZF0eU0nkr43v0aNO6p6bmmaZv+DgR69K+RzvbReWK/Pz7GSDhW+CF8bBD+bmu6Xzb8Xdf2fEtBtVY7/PDj3LR4cU/03L+W5s+de6d77r/X8eJJvGk+lulRg58X3r4f9BmItq/X2RdxrCsh2QbQaXzTZdWoptMrsmp5L7jgP4KxlnFdzy0KorHXLCsJ1TU/PlArgOvgRtOT2bmzzv7yl4fcc3Wu9dWvXuae6wfEX/fs6fXmzPmy+yHLtgkTDnCJsejHUz+E4dfRe/YHTsccM61Vop3IiBHD3bLhpuT+7zBq1EgrLe3vpgG9kQ72wt9xjYcPTONRfFGcCccVxQXFo9iDuzlzvhS9XEN9XyhpDtM2rr32f6Lf83RjVirtiV2anijO6kA2dju9zW23/Tp61wPRdbCxdwZQMq2/dfg2f1rnO9+5vlWZ0HzdoSC8/lVXfdetH4/WVdIee0cFjftk/ogjDm9zu0N/m0LuQLBvxfseeoojn/rU59pczqXffp+ceooHmu6X1fjcub9vE29SUXwJX8Kn7SludYRipk+eZf36jcGzPfQZpIqr8WQrjnU1JNsAOo0PwkOHDnG9PaeipFxNqNXEXB2Zybp1692jb3IdbkqtRFk/Qkoq9SPkE2itq21omS9+8fNuWtjf//5YdFsXXdTyQ6Qfwr///XH33Dfp1r5on/QD9fTTz7l5qaim/oc/vM7tm+gxUbMuJc/XXfdt9xqi19FZan+GVicF/Gc4duwY95iOE088zj36puS+CRf3XEZv5+OHBn+iS9+xZN/b+fMfcXHGT/PrhluPeD72aFtqRaJHrRNeT99znQBLFrPUwU66caS9sStZnPWP/vU0aD96S8dd4XvUqzO0zZvfdY+xdD98JdLq9V/LrFjxqrsjwOLFr9qGDeXBUi1094TwMlpv6dJlwdzW9FumpF3J9IsvLmj1+pqu+Wqh5C8Xeu65F1o9Hnfc9F7zt+pqwt9Df8mcvmNTpkx203wcCX/X/fdbcSA2mfTb0KMoTumYQJUD/hIyH898hUEs/9vvXzP8nc+Ujx+++bdaLPpYEX5Peu32HA9lM451NSTbADrNmDH7ucfNm7dEm7slM23aVNtvv5EuQKuGNswnnT4hVbMhf3ZVATacmH7iE2dHDzhOPvnEVjXCSrKvvvpa9/xrX7ssOs9fA6Wg7a8l1w/Jxz9+unveWUHcX7fkf1RE+6hr3YuKCqOfYXte39eYKxnQSQo1Idf4pEkTgiWA3sm3ENGg55Lsu6WE2NdOK94o7ij+KA4pXihuhIVjj4SbRPr1vHRjVirtjV3hOOt71tZ71Hv1J/X8e+3KTTM7Q0VFhUuGlRTr3vuimmLVGHv6PDZtes89j70vvtbVNjwlzaqJlvD99BNZt26De1QyraRawq/v5/sTpwsXLnZJih7Dr4W9L3wd9amnnuSm6TumS8LCcST8XZ81a6b73Y89RtI030JBj/GWSSX8mvqe6zU16PU7QnFF8cVT+VNTcB/nwrXe7ZHNONbVkGwD6DQDBw50PxIKoL5Jc6Z8oFUg9meF/aCzuvoR0o+RXk+vm4g6CNMyEu60wx/07is+6fZngJUg62Dcn3TQeOyZ70R8IqHP/be/vdsd4KfbDB3AHuGEONzBox/i1dB4akbpm0Rq3XBtuqQbs1LJZuxSLVXsib/OuoymK/LJ7Nixo624uMg9r63dGZ0u4XFfax0eEt0aLJykJ7J27brgWXI+AVeC/+CDf3OP4QQde5//HuoEuU6Uh4XjyN4Sfk1/0l6yuR+KC7osxifJOjbzxzDttbc/n72JZBtAp9FZR519FB10hq9LUpDW9TnpnoX0NS46+FNtrXfvvfPctvxrKeiHr21SBxrhA8UxY0bbt7/dcgCsM7D+uiJ/9ji8/XCzJt802++HT3416Hkm9Nqx12p5/gfbv64SZt07OPxetG6i66L8er5JpB8HkL5w65JwU089KvYk4w8edfCpJNYn1166MSuVdGNXumJb27S3Rq07U5Itvsm2+OuhPSXhfjl1nuY/Gz3effcf3XMv3GRczcvVzFz8+rF8jbXitr+uO9y03NdcqzZv9uzz3HN/fTeXCe1b4e9huK8ZdZoYbkmjOOK/675pua+lzabY2KXX1BDbgZ5aXOhSP+2HL/N61HgqPqbpJOJVV7XcM9vXprdXtuNYV0KyDaDT6IBgzpzPuQAqSrjDTSrbE5TVLMvXCqnDD78dH4jDzaMUrHVfas3/9a9/56aFTZ9+VPTs689+1tKLZ7i5kt++77go3KzJ/3j55uyxTUO92OaYiZLi8GeiwTfB8s2+VHPm99W/pl82tiORsHDna3rUOIDkYr+3OujzcSX8/dNjOHFOxm8rtiO0dGJWOnEk3diVDp0A1frhbaTb50ZPoKbjakIu6thMTcT1GBZOdJWEqwm5b0r+wQeb3fSwSy/9mpt//PEzXPKdrBMzTdd8Laflw68fW3Md3tdws3fsG+Hvof9d13f67bdXuGm+yXj4u+5/78NNy7MlXnzRoOdh4aTc73eyY4t4fGyMt33Z23GsqyHZBtCpfC1JvKZFPqFMh84Mz537Cxd0w/Rj4ptHKzGNvfe0ryGO5X/49CPxox/91J3xVXP02P3UeLiDoHDyK2oeGu+9zZz50Tb7GiucEIfpPYRvk6b9Cjft9JIl0eEz6TQhB9IT73ur73zs90/PFUOSCW9Ly+t7Hft9TxWz0okjkk7syoT2N/aWgz2ZTircccct0SRW7rrrN63GRb9d6sBMtc2enp999qxgrIWmaX2/nLZzzTXfTPg30fQf/OB7ra4RFzVXv+KK1n/fcA27rgXvLSdEurJ430OfaOpY6Pbbf9omjii2KA50Bm3Xd7Am2rfwuKjMhStF9J1XTArvZyJ6T5dcsqdH8I4cD0lnxbF9rc/uiOA5gF5KYaC5udmampqssbHR3bKmoKAkMl5v+fn5wVJAehoaGtwPI2UH7aWyoxNflB20V1eKO/7WYDJ37m2dci313niN3qK3xB01y/a3MVRiHD6pj8yo7OTkFFh5+TorKipyg+4mkZeXF5meY3379qVmGwAAAOgOdM1tuFk6HaMhETXXVnNsP/hm2aq99j2mo/ORbAMAAADdjO7zHdu8HEhGzbLvuWcul5btRTQjB0AzcmQVzciRKZqRI1PEHWSKuINM0YwcAAAAAIB9gGQbAAAAAIAsI9kGAAAAACDLSLYBAAAAAMgykm0AAAAAALKMZBsAAAAAgCwj2QYAAAAAIMtItgEAAAAAyDKSbQAAAAAAsoxkGwAAAACALCPZBgAAAAAgy0i2AQAAAADIMpJtAAAAAACyjGQbAAAAAIAsI9kGAAAAACDLSLYBAAAAAMgykm0AAAAAALKsz+6I4DmAXkphoLm52ZqamqyxsdHq6+utoKDEdu6sturq6mApID39+/e3wsJCq6qqCqYA6SktLbW6ujriDtqNuINMEXeQKcWdoqL+Vl6+LvJY5IaCggLLy8uznJwc69u3LzXbABJT0g20l8qNDlyA9lK5Ie4gE8QdZIq4g0ylU26o2QaQsGa7tpYaAmRGNUxAJkiYkCniDjJF3EGmiotLU9ds60CbnBuAxMYD4gPSRdlBpig7yBRlB5mi7CBT7SkrNCMHAAAAACDLSLYBAAAAAMgykm0AAAAAALKMZBsAAAAAgCwj2QYAAAAAIMtItgEAAAAAyDKSbQAAAAAAsoxkGwAAAACALCPZBgAAAAAgy0i2AQAAAADIMpJtAAAAAACyjGS7m7r//gft1FNn2qpV7wRT0FXcfPOtNnv2RVZRsS2Ygq6gsnK7/b//9xU7+OBj3PDLX84N5pjV19fbddf9MO48iV1Xg5bXekA8Dz30sB1wwGFthjPPPN/eeefdYCkgsWQxC0gkNva88sqrwRwguVdffa3Vcc7f/vZIMAcdQbLdDdXV1dny5W/ZsGFDbOnSZcHU3kUnG5TU7muLFi22K6+8xv1NvCuuuNzmzbvLBg0aGEzBvqaD1m9+8zt22WVz7M03X3bDpZfOCeaa/fa3d0e+T0Pd9Fdf/ad98MHmNge2o0ePshdeeDK6/rXXfssKCgqCuUBrZ599ZiSpfr3V8NOf3mhnnPGRyAHw/sFSQHypYhYQj45FamtrXXlRzHnyyb/Zrbf+MvKcE3xITjHnpZdajoFUfnS883//93eXgKNjSLa7oQ0byt3jZZd9MfLFWNQq0QPQ1h//eJ/927993I48cmowZY81a9ba6tVr7NOf/qQbVwJ90UWfcdP04yPbtlVadfUO9xzIhMrQggXP2JlnnhFMARJLFrOARAoLC91vmR5l1KgRNmbMaHv99eVuHEhkwIAyd0LPVyJoXDFICTg6hmS7G1Jt9iGHHGSHH36orVu3wZYteyOY01LTGtuEWc81TfNETc/VBH3o0P3doFpiz6//yCNPuHm+9jh2ndhaZSX8quH18++661437l9TYpeJrRGOpXX9sho07rdx6aVfsxtv/Imb7vd/b++jtq8moXfeeW/kx2xK9PW0P349vz3/Wtqmb/4ffn/xXife+/f839TP86+tZbi8oDUlzKqpPumkE4IprVVWVlr//v2sqKjl4EQGDhzgHpUgpUOvoeaeCxY8G232qUdNVzMs3yQrtrY8tskWZ5B7rmeffd4mTjygVa22mnfS3BOxUsUsIXagPdQyyyPuIFPEncyQbHczSrIef/wpO+KIw10z5WOPPdqee+6FYK5FDuYmuMdVq1a7R9HzsWNHu+RcSdg111xrc+feZps3v2srVrxq8+b9tVUi949/PGtvvvmWm68m0bJy5epW6yxcuDi6jpLE73znehs5coSbr6G4uNgloZ5f5rjjpkeX0fK33fbrYInWtJ833XSLvfjiAresHrVNna296aYbIknLz+zqq7/h5p1//jlunb29j/psHn74frv44s/Y+vVvRz+reNRM+ZJL5rhtnnXWTDv++Bnuc9d62ledNJk//9Fg6Zak+aabbnXztI7evz4PfS7azxtu+HEk2T7PzdM2Dj74ILfeoEGD3OUF2EMJc0lJSaRM63Nq+YHwibAMGDDA1Vrv3Nn6ZMf27VUuEfdU033CCR9ps36YaqN+/OMfRH6A/ukObrT8hg0bXZMslZXHH18Q/XFSjfrtt//GTffzi4qK3Dz0LPrOvvzyK5HycGwwxVyzTjXvVDNP39yTvz8kVcwidiBduuRQVEEjxB2kS33SLFmyNHIss58bJ+5kjmS7m1HiXFraP3qWUme+lVT6mux4CbieK4FUovrQQ/MjSdonXA2LaHklbeHlFZTPPntWMNZi5syPtlpHr6EEUVSzruef//yFblxmzTrDJaGer33XdE+vsWLFyla18GFKgvx1z3rtQw892D1PZF/sY7q+/OX/jO6btnnaaSe55Ft/E/83WLt2nZuvA3Ml4ldeeXmr93/ssce0ukZfJ1BE29B7Fy03b97d0ddCS821Tna89trr7gdCg5pG3XLL7e7HRM3sVLOtRNnT8+effykYMxs/fpw98MC90fWnTZvqrqeMTbh1faWaXqkZll7jxBOPizZP1zZOP32G+ctApKysLFqLrvlTphzonqNniT3g9RTj/N9fNd4HHzzFPUfvlipmCbEDiSihVqs71Vq/8MJC+8EPvhdtVi7EHaRDMUh03OIRdzJDst3NhBNniVeTHU7ANShZVE24krhNm95zTbDDzZM1rumaL+ooyid5YWqq7NdRE25PSawSv+LixGe4tIxvbu23odrdf/1rVdxEVicTdFJh8uQjWzVzT2Vv7mNHhE8kxKqt3en2RT+Wfj/8+1FCrr+9yoDmJ2vmjj3CSa/oO6KkVzVHSoy/+tXLbMmSPc2jBg8eZF/4woXu7xSP39aaNck7nVE5DjdPD/NJvmq/6fGzZ9MB7zHHHNXqgNf//Y866iTXezAQlixmETuQjBJo1Tqq5lqtacJNxYk7SMXfnUWXsqgFqb+Gm7iTOZLtbkQJn5LocLKsZFTNvmObkqt2TcvH1oSLmmD7ZtJ+UNPs8IFgmLaj64PFL68vYJiaWyda3/PNrcOv+/TTj8SthdW2tE++mXuq65D3xT52Nv1YhvdDg2+qrqbzGtd70smB9pyQ6I1ik149D38n9H35zW9+Hq1FOv30D1tNTU30DG6s2PUzoR8w9Wjue/w899zPuGZa6FnUJFix67DDDgmmtFAsUo3TK688Z3/96/+5k2f0GAwvWcwidiBdRx11pN133132wAN/cyfmiTtIRq31vvzlK23atCPa3HGFuJM5ku1uxF97HZsM6nrehQtfjiajqjGdPHmSa3KsJFxNlBVgNSg5882V0+Vf90tf+mIwpTXNCzdlF18762kZjWt6e+i96DZaaoatJvCJ7Mt9zDbVvvt9SUXJt/7+uo4//N6wx/jx+7trssvL3wummLs+W9MS1Vzre6MWHkrC49H64ebgHeETfdWkP/roE8FU9BTvvLPG1QaoViAendC5885f2Re/+Hl7+OE9/Tag90o3ZhE7kCniDmKpRluXquhyOPUtlAhxp/1ItrsJfx1vuAm5p7PdY8eOaXU9r64LfuyxJ10Tct/UXDRdzT/CHaLpeXg8ljrdWrdufTS50LLhJtp++7qtjfe7393tatw9dc6mBFLTPSWHd9/9x2Cstdh9ineCINz0fV/so5ftBF1/X50g+cUvfhU9gSLqIV7jsftUUVERvXZY82fPvrDVer2dfhgmTBjveoT31zvqmmxN0zVHsdSBma5VOuOMluvgRb2Mh8/gan197zpyrZteJ9yTpzpSQ8+jJuTDhw9rE7fVrDPcC7DiFyCpYhaxA4molvqJJ/4RjLW0rLn11jvs3HPPcjGIuINEdImKJDquIe5kjmS7m1ASqaCoa69jKYAqCQ/fc1uJQFlZqavhDl8brObQP/rR91tdD6wkXolmIlpHnarp+mUtr1q/cBNtbf+OO25x2/HbVNOlcOdj2sdrrvmmq132y5x33mci29zTO2+YkuerrvpudFkJ9/Y9Y8YpLsn1Taj3xT6KT9DVnN/ffisbpk8/2tXm+/ejQT3E632q5lsd5/jp6rVc7y38d0ZrunekaqqPPPJD7ppsXYuks7Kebsnlr9e+/fa59rvf/bJVIq4m5frO+GUktolVe6mG6vrr/79W29R+oudQPH7//Q9a9ULuDRw40L73vf9x11NqkK985RL3CCSLWcQOJKIa63vu+VM0ruja7Msvv8Qd77TMJ+4gsT//+a/RmOMH31ycuJO5PrtbtIz06eMegY5S7evVV38vkjB/3SWIXVF32Me9RTGgubnZmpqarKGhwdWmFBb2s9raKjdPiA9IJVxWdPKKsoN0hcuKTlJQdpAu4g4yRdxBpsJlpbi41MrL15luhaZBFTF5eXmWk5Njffv2pWYbnUNNsWM7ZutqusM+AgAAAOieSLbRYaohVk/gvlmzBknWw/ne1h32EQAAAEDPQTNyAK45DM3I0VHhskJzTrRHuKzQnBPtQdxBpog7yFS4rNCMHAAAAACAvYxkGwAAAACALCPZBgAAAAAgy0i2AQAAAADIMpJtAMA+p85GuvoAZEu88rUvByBb4pWvTAcgW+KVr9ihs9AbOQAXZNrTG7mf5hE7IOGykm6vwFrGD12d3ocfkF3hstKTewXuquW9O5ftcFmhN/J9pzPKdmeXy3BZoTfynqk95bI95S1cVlL1Rk6yDcAFjXSTbY3fseA9y8t1o9a4y+yEIR9Ybm6uCyxdOY5o3/UeNYj2tyvtc2fuXybbDq9z+OGHB1MT0/KibSY66F26dKl7XWlsbLRnNg10ZalPN2hntbu5pbyfMnKb5efnZ+1vkw3+b7VrV2QHI7L5fcxk2+F1jjjiiGBqYuGykuigd9myZe7ARRSvRPvRlf4O8YQ/ixe2DOuS5d2X7eMHvx89SMxm2dEg6fy9wut0Rtzx+9KdfrM643udDX7/dNzQGbG8vTE3/HkRd9r/3dubOnP/wuWgPTHXl7f/PG149G+eSLiskGwDSEkxIJ1k2y/388cjB2ShZPtj+293AUbBpSvHEe2/gq/enygg6uClq+xzZ+5fJtsOr3PggQcGUxPT8qJtJjroffvtt91Bk+Zpu/+3otCVpb59u2658Zqbd7vy/m+T66LlPdUP8t6i76X+VjpgFH3++vtmY/8y2XZ4nSlTpgRTEwuXlUQHvf/617/cZy46USNd7Tscj96L9lfv69E1pV2yvPuyne1YrvfeleKO6DdOsvkd6Syd+b3OBu2fyvbOnTs7JZa3N+YSd/YIf4+kq+1zZ+6ftp1JzPXl7SuntyTbyfYlXFZItiNuvvlW27TpPfvBD77nApWn6QsXLrY77rjFBg0aGEztefQ+b7zxJ3bxxZ9p8xnEc//9D9pLLy1yy8p3vnO9HXfcdDv//HPceFfT3f6O/u8hhxxykM2de5tNnHiAG4+lv8UvfvGrpMvIqlXv2Jw5X7If/ej7Nn360cHU9CkG6EcqVbLtl7nxQdVku8mRYGn26SN3RoJNsStbWq4rxhK9Dw16f+EDFx2AdYV97sz9y2Tbsevsv//+wZzEtLxoe9p+eNx755133DyVpdraWrtzYY4rS5G9CJbouiKfiCvvnzuu2UpKStwPaqof5L1Bn7M+z3h/347uXybbjl1n/PjxwZzEwmVF68QrO2vWrHGfuShGaV6qcryv6X1o0HtSef/jq0Vdsrz7sp3NWO7fe1eKO6Lt+mWz8R3pLHofnfW9zga/f75s//6lvlkv2+2JubGfF3Gnc44nsqEz989v25fL9sRcX96uPmdYNFFORK8h2tdUyXbXPZ2XJYsWLY6baFdUbLMVK1ZGnu2OJCqrWyb2QErW9P7Xr3/bbrrphlafQXekv+eVV14T/XLKFVdcbvPm3dUtEm3t/7hxY23z5nfdoOT4mmv+25XHWJo2b95fg7HklIhrW1o+/Nlkkw8sety4qdk2lLcMeh6eB6QStyzpsasPlHdkoFuUd8o2MtDpZZtyiQxkXC47qbz1+Jpt1SKedNIJbWr7lPQ899wLLvFZu3adS9h6IiXb7X1/XblmW383JZTp1NB3B0qM9fnOnn1emzKqsrtjR40tX/6m3XDDdUlrtiXZtlJRDNAZ4XRrtv+/x2vcNO/CQ7dn7VobdE377bdf8CyxcFnR9zPeb8vGjRvdoy9Lc1/pft/j/5i207p689OupL1lR7EsWdnpjnx5v2f5gGBK1/TZQypd2e4qsTzbcQfZtzdieSYxl7jTu3Uk5l710eKU5S1cVnp1M3LVDN5ww4/tmmu+2abW0yfhgwYNisy/NprM+IQlNrkMJ6AK5kr6zjzz/GCu2cMP3x9NcPyyhx9+aCTJvcZ++cufuW3FruOne74p8PLlb7nmxf/1X9+wBx74P7vxxuuj+x9eRmK3ERZurixa9ogjDm/1fkWf09VXf8+uuurrblp7km3/eem9Llv2hi1e/Kpr8rx06bJWn5eEE2Xx29XJAL+f7Xk/V1/9DXcSId7++v258857o021Kyoqop9/vCb1if6m/j2OHDki6ydl/LZjE2T/WX3uc5+166//Yau/V6qyl8nJI8UAH5gSJdueX06PokASDSg9LIagfcK/JeGDXoktG5qncqRrtnRtlR41rumxZW5f0n5rUBnXj69+QPXIyaXsCped8EGv9ITP2Zd3H2NV3hVD92V592VbsVtlWk04Va67W9kOl51UcQfZ58t2tmK5L5d7I+aGy05PjDu9mS+XqWKuL2/tjYPhstOrm5H75uHFxUXu0VPCqibkEydOsNGjR9nYsWNccigK1EoAlbzpiyd61LgSIs1XsnPTTbdGtvGqawr84osLIuO3uO16SvJ03ZPm++RRrxleZ968v0TX8Um0mgJr/qOPPmBPPfUPq6zc7uaLllGirMRRy2hbSsi0P/Eo4VLyqqQ0vB+d4be/vdsuuWSOPf30I9GkMB2XXvo1d9JD+6ekUdcnhz/HML0fLaNEWc3ikyWUfn+03bPOmmnHHz/DfVZaT5/bunUbbP78R4OlWxLYRH9T/c2VaHeGDRvKI/uy3p308XTyY+7cO93+67XDtD/aL+2f30+VM2/s2NHusgFfdrNNwUWBxQeidAISeofwj1c88eaHf9xU1lWWdV1ev379usyg/fHXsGo/tb/ab2RPJmWnO1K5UbzUgZg/KPNlfl8Meu3wwaH2rbuV7d5Sdrq6bMZyXzY7O+ZSdnq+dGJuJnGwvWWjxx8xKEmKTViUWE+ePMnVFmtebHKt2l8lQEqERI9VVdUuOdcyStquvPLyaG2zkstjjz0mmrDLaaedbDNmnBKMtbjwwk9H1/FJvmpb5aGH5ruk0NdQar+UbA0YUObGRcvMnv2JaDKrbekEgJrD72va9/Yk2Z5OBPj3rNroo48+MvqZdMSXv/yf0f05++xZkb/HSdHk1X9uqgGWdP6mSuyTJfdKkGfPvsiGDt3fTj11ZvSEgWqaNcSjdXS9dvhvKr/73d12+ukfTvh5DhgwoNV+Hnrowe65KGlXWa2t3RlM6bhwUPFJtQ9gPihpOgl37xUuI4meS2xZ0qAypDPAOqjq6oM/U015z55Myk53FC7vSh66UpmPrTnsLmW7t5Sdri5ctrNdrjsr5lJ2er5wuUwn5qYbB5OVl0RaJds9rVCp9jKWr6VWbaoXm1zH1naHk3MlMdqumvEqsfKDmjf75E1Uwxhbo67XVudeWn7MmCmu9ttPV22krh9PxC+jmuDw62q8M2sy05Vs35OJt168v1tHhRPUWOn+TZNRgqwEXrXNanmgVgrahpL42JMuomT8vPM+49YJtzjwiXmiVggqm6Wl/SPl8ciESXxHpBMDfACKDUZal6F3Du2RaD2VJZ246apD7A9v+H0wZD60R7z1u9MQ1pXKe3ct2+0Rb32G7A1h2SrbnVku2yPe+gzdYwhLVS7TLW+ZaFOznemGuiIlvLGUUOu64nBipSbG//jHc9Hk2td2K9GKl5yLmjMrsQoPyWo+lVydcca5brtaVs2Z1Rw6LN7+xlKz8NjX7Qm9jHcF7f2bhmk5nyCrtlnN6bV+vF7S1WRdybiS8nBSrZpuJedK8mPLph6VXOvvrL+3v4QgXIveUcm++x0JMug94pWRdMqOfuS6y4DOkWnZ6Y7ilauuMHRXvansdHXxylVHh85E2ekd4pWrREO62lNGXLIdu4IvaD1hUK2vbrbvx1999TWbNesM++CDNa2G+fPvc8nL1q0VbrmpUw+LJDQr7bXXXrf+/fvbYYcd4qYXFRW6pHjt2vXRbcYbYj9H/7qf+MTZbZbRNQIjRgy3Z599PjpPw9atW9012+Fl3n13batl2jsMHDjA1fKGp+k9V1ZWtprm9y32ebwh3vwxY1p6gQxP02cWnhZ+nmxa7BBvmfC08PNk0/yQ7t80G8PKlavd9dh/+csfbMKE8a3m6W/z5z/f2apcvvDCU64JvB7DZccv+6UvfdEefPBv0ekqM6r51nvy09IdwsLjsc8ZGBINvox4sc8ZGBINvox4sc8ZGBINvox4sc8ZGBINvox4sc8ZGBINvoykI1qzHV65p9A11uKvX1XN4X33PdCmllr8sr5TNdVOHnjgRJcYHXzwlGjNsR4/+clz7bbbft2qRvGRR55IWsOoZG7RolfcPog65/LNyEX7pGl+G1ru5pt/7p57uvZYy4Q7RNPzRB2kxaOm7UrGdP23qOb+V7/630hit8WNZ4uuHVYLAvUILnpf+syyQU2+s3lNcjp/U/WErqGj9Ll/9KMzEjZpTyX27x3bzF2fjU7KZNrSIV4c8NMYGNIdvHjzGBiSDV68eQwMyQYv3jwGhmSDF28eA0OyIR1tarZjN9KdB9X+KfFYuXKVG/ePEyYc0Go5DVp2+vSjXGdjftqHPnS8q4lULXd42WOOOcrVKJ5wwodt2LDxbnjzzbeiNZXxPketo+1PmTLNLV9bW2sXXfTpVvNvvPG66DYvueSr9o1vfNnKykqjy2j7WmbWrE9GX1e18b7WPd7g+XHVkH/xi19wSbvWnzmz5ZrhSZMmtFrHP082LTzEzte+6jPy+3rHHXPt2mu/1WoZDbHrJZrmB71X1Zrrc1Tyq2nxlo83LTx4fjydv6n45TMd5LLLvh59DT/oWv5wC4xEw8CBA+2//ut70fXkG9/4ipun9XXJg8pt7HrpDl7s8/DtEhgYEg2+nHjhaQwMyQbKDkOmA2WHIdOBssOQ6RBbdpJx99nWvcfa0069O3n55Vdcbfb1138n49q+faU77zv2vo6UFx84dD9C3SdTLR5KSspM99nW/QmB9lDPniqDul97T/1tQfYpDumEsOIPcQftRdxBJog76AjFnVT32XbJtg6uvZ4YoH7601+4a7e7U9KqZuRf+tI3XK2zrtVtr7ff/peddtrHg7HsmDLlQPvHP/4ejKErWb16jX3xi19xLR9US99e4WRbPzY6WOnXb4BLtvUDJBy8IBWVI1Gc1aDWFkLZQSq+7OhARTGHuIN0EXeQKeIOMhWOO2kl25wF3PdUK3nOOZ8Oxlo8+OAfM0qcgPZS0Iit2S4tHeSS7ZqaGuID0qayVFJS4n6AKDtoD192FH8oO2gP4g4yRdxBpnzZSSvZ5iwg0LspYIRrtjWUlQ12yXZVVRWxAWlTWSotLXUHvZQdtIcvOzropeygPYg7yBRxB5nyZSetZHvHjh0ULqAXU8AI12yrtcugQcNcsr1tW0sP+mHEC4Sp/ISpIz8d9FJ2kEq8sqODXsoOUiHuIFPEHWQqXtlJK9nevn07hQnoxRQ8fLKtDhP1ozN06EiXbG/Zsue2cMQJJBL+ARoyZIg76N28eXMwhbKDxMJlZ+jQoS7+EHeQDuIOMkXcQaZi405ayXZFRUWwSgsKGNC7KHAo0fbJtmq2R4wY7ZLt9957L1gKSM+IESPcQe+mTZuCKUB6Ro4c6Q56iTtoL+IOMkXcQaYUd9JKtj/44INglT1IuIHeQ7XaflAzcl2zvd9+41yyvWHDhmApID2jR492B73r16934/yeIBWd8JMxY8a4g17iDtqLuIP2Iu6goxR30kq2lyxZQlACejH94PhkWzXbMnXqUS7ZBjKhg14gEzroBTJB3EGmiDvIVFrJ9qJFi2z48OHBKpwNBHobn2z7DtLUSQjJNjqCg15kioNeZIq4g0wRd5CptJLt8vJyGzVqVLAKgN4mNtneunWrDR483CXbO0p3BEvt4ZdH7+Z+ROKcnO1X1c8d9Fb3rw6m7EHZgSQqO/2r+7uDXuIOEiHuIFOp4k7//v2DKUB6qqurSbYBpOYPRJIl230i//JqC2zXjmZrrG9004C8gjzL7dfXGovrbXfkn8Qe9Krs9Knqa/VVu6yxjrKDFnmFeVZQmmu7S5ujZSc22SbuIB7iDjKVLO6QbKO9SLYBpCVVsq2DltztBba9ptJyyvpabmGOCyLo3Vzv9XVN1rS92cpKBtiuspYD3/BBr8rO7g/6WlVdpeUPyre8olzKDlpizc5d1lDRYKWFA6zPsJYD33CyTdxBPMQdZCpV3CHZRnulk2z3DZYFgIRUs6QD3vyhuVZQks9BCxyVA5UHlQuVD5WTWKpZ0gFv8cgiK+xXQNmBo3Kg8qByofKhchKLuIN4iDvIVDpxB8g2ShmAlNSE09Us5eUGU4A9VC5UPlROYqkJp2qWKDuIR+VC5UPlJBZxB8kQd5CpZHEHyDaSbQBJqYm5rpVUE04gEZUPlROVF8+VnbpG14QTSETlQ+WkTdkh7iAF4g4yFS/uAJ2BZBtAUr4HV5rhIRlfPsI9/lJ2kA7KDjJF2UGm4pUdoDNk1EFaRXW9LV+/zdZu3mFbquqsYVd2Cmp+bl8bUlpo44b2s0PGDLRB/dtehwMg+3RmVz848TpI216y3aw813LGcPYXyTWt72M2apeV1ZS5jooqiyutfk2TFU/MD5YA4qtd1WAF43NsQO0A11ERcQfpIu4gU7Fxhw7S0F6d0kHagmXlNvfJFfbiig+svKI2a4m2aFvaprat19BrAQAAAADQ3aSdbO/Y2Wj3PLPKFq/eEkzpfHotvaZeGwAAAACA7iLtZPvBRWtdrXM8u3c3W2NDfUsz1F2N1tTUtnc/TavfWROd59apr7O62ho3aP14nRToNfXaAAAAAAB0F2kl22rOnTjR3m07d1TZ2reXWnXlFtv07r+s4r31rRJuPd+8YY298dJTtqV8XSQh32W11VW25q0ltnzhU/b6i0/YO8sX286aqoQJN03KAQAAAADdRcpkW52hJWo6rsS4sX6nTRhWZDdc/u92xPihdtn5J9sFpx9lu5ubosuoRnvWcZPsT7d82z45Y6o17262Q8YOtBu+doH9MTLtzz//rl17ySdscH6DNcepFRftg/YFAAAAAICuLmWyrV7HE1Ez8A2r3rT8phrbtWuXvbPyLSsuyLV3122w6sqKaLPyAbkNduiksdanTx+zyH/qmW3i2BFW22j26Cvr7dWV79nIYYPslGkHxq3Z9pLtCwAAAAAAXUXKZFu390pk/KjB9oPLP23nfewkGzKozL7+hfNt9IhhNvOUY+zcU490y+zYXmHHTtnPdYNe37Cno7OFK7fYgwvX2rJ3t9qSFeutumanFRbktyTkCSTbFwAAAAAAuoqUybbuo53I+s3VdusDC231+vfs9VUb7clFb9nmbVV271Nv2ILXN7rm4wePKrZDDhxnKzdsteZQrXX1zkarq290yXh+0w6XaO/uk2t9c3KDJdpKti8AAAAAAHQVKZPtRPfRVm/i6hBt5+Z3rF9hnm3YsNFym+tsx44ae/7Fl6y2utr61m6xk6dNtoqqnfbOxi2RlSL/NakX8nrXSVrVts02OHeHnXXadGtsMntt3fakNdvZvKc3AAAAAACdJWWynZ8bf5E+fframSceatdffqGNHD7Ezjhlus04fpqNGz3Cbr7qczZ14nA7b8aRVlJUYH/4y8O2ad2qyFq7raZ6m21c/aZLtMeX7bb/OP90y83Ns2eXv2dr3q9u2XgC2hdd093VBwAAAABA75Yy2R5SWhg8a0sJ8nOvrbGtlTvsTwvesA+2VdkLyzfYHY+9bQ3NOTZm1HAbPKDUvv3lC+2rnz/figoL7CMnHm3fv/xTduCIYvvUmSdbdW293fvUa7bojdVWV7sjkqwmrr0e3L/AdbrWlQcl2/4RAAAAANA7pUy2xw3tFzxrq29Ojo0cPtia++Ra/7IyKy4qtu31u11T8Pe319mC1zfZ/MXrbP7L62zBq2usrqHRXlu50Z5aut6mTR6rjsntqecWWeO2jTY8r9qG5Na65uWJjB5UZA0NDV1yaGxsjA5NTU3R5BsAAAAA0Pv02R1RXl5uo0aNCia1pntbz31yRTCWuYPHDLDTp+5nb22otEdf3WD/8ZEDbUhpUTC3xZaqnfa/T/4r4XXbF5w43gaU5AdjXdsbbyy13Nxc916SXYfeHen95OfnW79+/WzQoEHuEd2bb5GhE0U6YbR161YbPHi41dZW2faS7WbluZYzhtYaSK5pfSTWjdplZTVlVlhYaJXFlVa/psmKJ3aPuI19p3ZVgxWMz7EBtQOsrq6OuIO0EXeQqdi4079//2AOkJ7q6morLi618vJ1VlRU5AbdgSsvL89ycnLc7a5TJtuyYFm5LV69JRjbN46eMMRmHJ54H7uSmpp6W7p0sUtIlXDrg+5plJyJEu/Ro0dHErPBbhzdE8k2soGDXmSKZBuZIu4gUyTb6KisJdtyzzOrrLyiNhjbu0YNKrbPnjIxGOv6lGwvWbLIBg4c6D5wfdg9qXbbJ2a+Cb3e24QJE6jh7sZItpENHPQiUyTbyBRxB5ki2UZHpZNsp13les70cS7p3dv0mnrt7kbJi2q19YGrhrsnDXpPKkxKrouLi917raioCN45AAAAACDtZLtfUZ6rXVZz7r1Fr6XX1Gt3R6rx7cmDTiboLLKS75qamuBdAwAAAADafTGxrpue85HJdvzkYa7WOdF9uDOhbWmb2rZeo7tco92bqYmEkm01JwcAAAAAtEj7mu328teAKgmrra21wsJ+VlJSEMzt2XTN9iuvLLThw4e7Ztbu4vg+Peea7Vi6xreystKmTp0aTEF347+vXLONjuDaSWSKa7aRKeIOMsU12+iorF6zDQAAAAAA0kOy3Q2ppcATTzxhy5cvD6a02Lx5s73yyivBGAAAAABgXyHZ7qbUREHN/5VgAwAAAAC6li6bbC9atNhOPXWmrVr1TjBlD02bPfvCuPPaQ+vrNYYO3d+uvPIad71GRcW2yLYvctPCw/33Pxis1XWMHTvW3nmnY58BAAAAACD7unTN9qRJE2zp0mXB2B5PPvkPKysrC8Yyo6T6Rz/6qc2de5tt3vyujRw5wubPf9QGDRpo8+bd5aZpWLHiVbv44s/YjBmnBGt2HeqArb6+3tatWxdMaU3T58+f74ZHHnmEWnAAAAAA2Eu6dLJdVlZqL720yCXGnp7rns5TphwYTMnMqlWrbfLkSTZx4gFu/OyzZ9ny5W+52u2wBQueseOOm+6S8K4mPz/fDjrooMh7WeWu4w5Tor1ixQqbMWOGzZo1y44++mh7/fXX2ywHAMiupx5+xq7+z2sTDmtXrw+WBIDs2/L+Vvv5//zKvn3Z9W743c/vsdoajv+AfaFLJ9uqbdagxNhT8jt06BDbsaMmmGKuibdv7q0m4D451/Q77vhfN+3mm29107x16zbYuHFjgzFzybS6b6+t3RlMMZd4r127rkvWantDhw51Ndxr1qwJprTQe5k8ebK79ZhouZKSEtuyZYsbB3qbnbV1Nv++R+2OH//WDc8+/rztatwVzDVb+ebq6Lz7fv+gVVZUBXNaxK7/yotLgzlAax8+8xS78VfXtRk+9R+fsGNPPtr2GzsyWBJIbNkry+26r90YHZ557J/BHCCxtavX2U+vu83+7VMz7X9u/54bPv+Vz1pxScvxIIC9q8t3kKYa50ceecIlvj75/chHTgvmtjj//HOizb5nzz7PJeSent9xxy12xRWXB1PSt2zZG+6xK9Zqh40fP97ef/99q6ioCKYACFPiPH/eo3bMidPskm9+wQ0nn36i5ebluvlKtFcsX2kXf+kzbt4R0w+zfz71gkuwRY9PPfy0TT5kkpuv5TZteM+tB6RDNU3PPPa8TTvuiGi5AxJRYr3s5Tfsqv/5ql37s6vdcMrHPhTMBeJTnPm/Pz1iX7ziczZuwp4KJQD7TpdPtkePHuUeN2woT5j8hjs1u/TSr7mE3FPynWmyvGTJay7Z7+pUez1x4sRW127rxvxqRu6bjet6bTW/HzJkiBsHegvVXi9b/HokuT7Bho8aFkzdQ4m0Em0l4kXFhW7a+EnjrLSsv214d6Mb16PGNV20nJbXej4hB5LZsHajjT1gNLXaSGn9mg2RYaN94sJ/s6KSomAqkNqGteWROLNfJM60HDsD2Pe6fLJdWFhoM2d+1B56aH7c5FeJ9tVXf89uuOG/Xc32ww/fH8xJbuzY0a2Scm1HCWpxccsPm7823Cf7Xd3IkSPd7cB27WppFqueykeNGmULFixwHaQtXrzYDjvssGizcqC32Lq5wqq2V1vpgNJgSmtVlS3NxcPzVfNY0r/EradkXbXYI0ePaFUjWRCJTX36mNXXNbhl1Cz9rddWuEff1Pz98g/aND/XNE817mqy7ufFNm1Hz6BrJXXZgU7WhMuQ/tYP/OFvra7nXrqobaeg6D1UJl5b/LqNGb9f0kR7Z81Ou+eOP0ebmCt+bPlgazAXvZHKztrVa23chNZxJpaWe+iP86PXc2tYuuj1YC6AbOvyybZMnDjBFi5c7K7djk1+/fXZvvb6uedecI+paJsrVqx0t/8SJfOHHHKQS+7FXyfux7sSJcwnn3xyq8Q5Ly/PTTv22GODKRZ5P4e4ztE0zJypW5wNDeYAvUdVZbVLlFU77ZPa8DXZmq9a67yYgxNNq6muiSTT9UGy3j+Y06KgMN9271ayvadm+41X37LDjz7MNTXXdbsP/GG+a77+oQ+fEJ328vNLXAKuQU3VVeOueXO+dpENHU7Lk57oX8tXuccDD5noHkUHvH+b94g7yeOv6b7y+sstvyA/WAK9UWNDo1VurbIDDtw/mNKWys5Tf3/aDj/m0GgT81PPoIl5b9fQ0GAVWypt4OAyW/D3Z6OJtDpKU/NyUdl5+P5HrX9ZafR67q9f+yX3ewagc3SLZFuJtJqDa4hNftWbuHoVnzz5SNeMPF3a5pw5F9vxx8+Irqdrv73YDtQAdE9KlF/+5xL3XEmththrsrNF2x0wqKWGfPT++0WGUW2miWrTVSOumnHVkItqIg6aOjlpjQS6Hx3crlm51o46/ohWHRS1HBhvs4lTWu6IIUOGD7aDp04JxtAb1dTU2m6dxYsI11zPv+8RV5akctt227Zlu40aM8KNy5TDDrQhwwYHY+iNanfstB1VNfbrm39vEybvH02mDznyIPvj3Ptdwu0Tcs33FHcOOnxyMAYg27pssj19+tGtOjVTIqxpooT72mu/Fb1tl5bzHaTpuV9P64QT6FjaXni9sFTrAug+Do4ksf56a/FJr78muzPF1oh7SsBH7DfC/vS/99OzeQ9WWRFJjLZus9HjWsqcp1s3Dhoy0B68d3601gmQmh219vD9j9sZ533E1Vp/+8dXuumPPviES7gHDCyzgUPK7NG/PumakwNhH551aqvO0Y475WjrV1rierdviTsDXCdqxB1g7+gWNdsAkCk1B4+lJuN+upJh1X43BrVGnqbpuu2CwgK3rJqbh8XWTGdCtZ1qPq7m6mreTtLd87y2+A0bOHigDRhUFkxpoRYM515wlh067WC76Xu3cr02Wjnz/NOjNdUqK8edMt3VZqtWW+NnnPNRGzC41H707Vu4XhuthGutRS1qlHxXb2+5dOrsT89ytd26PRjXawOdj2QbQI8WL5nWc38ddrijM0+1R0qAR48b5Q5sfWdpYbpWu39pf+vXv2OdDmr7ug3ZuRfMch2x0bt5z6FypEsGYjtGC/P35L70qjn2p//9iz318J5bV6L3KYkkRuq7IbZzNE3vEwlUviZb5WnWJ2e6mu+DDj/QbrvhN64Xc/Rexf2KXA32tq3bgymt6TptH4dmfPxk18Rctwi77/cPuGu8AXQOkm0APdrgoYNczfSbr70dTDH3XNM0zzfn1u3B/DWRusZWNF8mTD7A3lnxbrQncSXE6uhs8qGTEiZRqaiDNv866JkSNSGPZ9yEMfap//iES859OUTvk5efZwVFeVa+/r1gSgt/LXe8HspPnHGcHXXiVNsWKW/ovXwNtnokD8cQ3Q1h7ep17rKVWFr+k58719V6E3eAzkGyDaBHUzJ8wmnHRptqa9BzTfOJsppzq/Z67s/ucvNVwxyer4T8o/82w559/AU3/87b7nX32Y533+72WPz8q9F9UvL+4TNPjd7rG92f7q2tvq5U4xRLB8CLnnslGGupBdfJF/VOnukJHHR/+ttPPfowe2HBwmjTcJWNl55Z5O7Trqblmv726/9y80RNyze8u8kGxlyqgN5H12erAzTdGcN76ZnF7vHAQya4uOM7DBWVLSXn4VpvANnVZ3dEeXm5uydzNukMbHNzs+v5sLa21goL+1lJSUEwt2erqam3V15ZaMOHD3e35+rbt69r/tVTNTY2WmVlpU2dOjWYgu7Gf1+bmprc33Pr1q02ePDwyHe3yraXbDcrz7WcMS095AKJNK2PxLlRu6yspsx1ZFlZXGn1a5qseGLvvK2MmoSrpvqs2TPbHMjqoFc9BK98s+U2k6ITOmpW3hvVrmqwgvE5NqB2gNXV1fX6uKOE+v47H7L3N7a0pjn3wrPs8KMOcc9j58kXvvpZGzN+dDDWuxB3WlNs+fNv/2qr3mq5te30k6bZmeef4WJQ7DxRh2pqVt4bxcad/v3jd2gKJFJdXR3J9UqtvHydFRUVuaGgoMDdkjknJ6clByTZzr72JNvr1q2zZctaOsXRH+Xoo49298NeuHChjRw50saO7fq3HyPZ7v5ItpENHPQiUyTbyBRxB5ki2UZHpZNs04x8H1JC/e6779rHPvYxmzVrln3kIx+xioqKYC4AAAAAoLsi2d5HNm/e7GoRjz/+eHf2Q/Q4efJk9xwAAAAA0H2RbO8jH3zwgZWVlUUT7Xh27txpTzzxhM2fP9/Vgoua+D777LNuWni66PmKFSvarCNqru7XeeGFF9yghF9it6llJbyO5ms5AAAAAEBqJNv7yI4dO1JeG6Jk98QTT7QZM2ZYTU2NS46VnJ988smu2bman6t23CfNEm8dDUrCjz32WLfe6NGjbfv2lluEKIF++eWX7aCDDnLztJ6atldVVdmGDRui6+g1k50YAAAAAADsQbK9j/Tr189dVJ+MmpSrgzUNJSUlrqZbfI3zY4895q7x9tMl3joaSktLXcdroo7XVKsuSraVlKsWXNtcsGCBG6+vr3cX9i9dutR1cAcAAAAASB/J9j6iWm31+NzeptlKtMOdqvkEOhkl9UruE1GvearR1vY0zJw5021XtdqqJX/++edpRg4AAAAA7UCyvY+odlmWLFniHkU1yK+99lowFp8SZ9+lvJZXc+9Uhg0bZu+//360hnrTpk3RZuS+afiaNWvcYyzVkJ966qmWm5vrbu8FAAAAAEiNZHsf8ddei++ETDXIkyZNctMSGT9+vEuw/fJKvFNRLbXu+a0m4lpP12L7ZuTaD93bW/da9/uhWmwl5r7TNDVX1/Lp1KIDAAAAAMz67I5QojVq1KhgUnZENmvNzc3W0NDgErfCwn5WUpI6MUylomKbXXLJV+3KKy+36dOPDqaa3XzzrXbjjT9xzx9++P5W82TRosV25pnnu+ennXay3XHHLTZo0EC7//4H7dJLv+ame+H5maipqbdXXlnoElzVDOuG5n369Anm7nv6eyxevNgl2dq/jlLzctV6T506NZiC7sZ/X9Xhnv6eusRh8ODhkbJSZdtLtpuV51rOmN3B0kB8TesjcW7ULiurKYvE/EKrLK60+jVNVjwxP1gCiK92VYMVjM+xAbUDrK6ujriDtBF3kKnYuJOq42IgllocFxeXWnn5OisqKnKDb4Gsvq+UA3armm0l1Eq0x44dHUxpoYRZNm9+1158cYHNnXunS8rDlFSuX/+2W2b27PPsd7+7200///xz3DQ//PKXP3PzM020uwM1GVdByEaiDQAAAABoq1sl21dccbnNm3eXjRw5Iphi7kzU8uVv2dlnz3LjEyceYJMnT7JVq1a7ce/QQw92ZzzliCMOtx07aty6YUrQX3ppkc2YcUowpWdQTba/97YG1VpOmzYtmAsAAAAAyLZuf812be1OV4UfrokeN26srVu3IZJwv2PXXffDNkn10qXL7JBDDoom354S9OOOm97jarVVg/3Rj3402ts498wGAAAAgM7VazpIU8J95ZXX2NCh+7txNR8P0/xHHnnC1XoDAAAAANARPTrZVpPya6/9lqvB1nDTTTe467JFiXe4xnvDhnIbPnyYWwcAAAAAgI7o9sl2cXGR6z0w3CHa2rXr2nSiFjZr1hluHSXYnpqWT5tGb9oAAAAAgI7r9sm2aqx1/fVDD81347pOe8WKlTZx4oToNdu6LdUbb7zp5suyZW+467xHj2653ZlquNXJ2qBBg9w4AAAAAAAd0SOakaumetOm99z12HPmfMmuuurrrTo5U0L+2GNPuvkabrrpVrvmmm9GO0iL18kaAAAAAACZ6rM7ory83EaNaqnlzZbIZq25udkaGhrcracKC/tZSUlBMLdnq6mpt1deWWjDhw93PYHrhuZ9+vQJ5vY8jY2NrvXA1Kk0w++u/Pe1qanJ/T11e7jBg4dHvrtVtr1ku1l5ruWM2R0sDcTXtD4S50btsrKaMncys7K40urXNFnxxPxgCSC+2lUNVjA+xwbUDnCtzYg7SBdxB5mKjTu6xBRoD1XWFheXWnn5OisqKnJDQUGBu+tTTk6OywF7TW/kAAAAAADsLSTbAAAAAABkGck2skLNJAAAAAAALciQ0CG61leDrk0AAAAAALQg2UaH7dq1y0pKSoIxAAAAAADJNjpEPVhrGDiQ26YBAAAAgLdXku2efNur3ip8q6ghQ4ZYv379gjkAAAAAgE6/z7bu2at71+XlFQVzeodXX33ZBg8e7O752NPus+3fT25urms+TqLd/YVPnnCfbWSK+90iU9xnG5ki7iBT3GcbHZXOfbY7NdnWoOt5GxoaXCGur693435eT6Lk0yeg+pAV8PPz8924nwd0Vfo+kmyjozjoRaZItpEp4g4yRbKNjtqnybboAF4H70qwdQCvRx3Q+0TbP3Z3PpHWoz5UJdj6kPWoD5pEG12dvosk2+goDnqRKZJtZIq4g0yRbKOjukSy7Q/i/eCn9US+BlsfrB/8NKAr899Tkm10BAe9yBTJNjJF3EGmSLbRUekk253aQZpPNPVivrZXTat78hBbo02iDQAAAAC9T6f3Ru4TTg2+tleJaE8cYmuzNQAAAAAAep+9dp/tcALaGwYAAAAAQO+115JtAAAAAAB6C5JtAAAAAACyjGQbAAAAAIAsI9kGAAAAACDLSLYBAAAAAMgykm0AAAAAALKMZBsAAAAAgCwj2QYAAAAAIMtItgEk1bdvX2uO/LOmPsEUII5I+VA5UXkJa+4TmbY7JxgD2lL5UDmJpfKUY7nBGNCWyof7fYpB3EEqieIOkG0k2wCS6tMnkmQXRQ56aznoRWKufETKiSsvASXeTbmNlluXF0wB2lL5UDkJn6jR84a+dVbQWBhMAdpS+VA5iS07xB2kEi/uAJ2BEgYgpd39mmxn1U4rrC+mpgmtqDyoXKh8qJyEKfHWtF01u6yooYSaJrSi8qByofKhchI+UaPnjUX11rSz2fo3lxF30IrKg8qFyofKSWzZIe4gkWRxB+gMfXZHbN261fLz84NJAHqbSBiw5uZma2qKHKDs2mX19fU2ePBwq62tsh2lO9wytdW1ZtV9bUjJUCsqjCTdORzA9HYqLzvram1LzWaLHPlacf9iN71fVT8rLCy06v7VVl9Xb9u3bbdRpaOtqI8OfDnHixZqwrlzd42VV22wsoFlVlBYYP2r+1tdXZ2LOyo7VZVVNmbgOOuXU2p9qR9AQE3HdzRV2fpta610QKkrO8QdpCNZ3Onfv3+wFJCe6upqKy4utfLydVZUVOSGgoICy8vLc8fJajnhku1geQC9VDjZbmxsdMl2QUFJq2RbdABTW1trDfUNwRT0dvkF+ZEfmmJ3wOKFD3plR/UOq91Ra/1K+7nlOFEDxRrFkx1VO6y4X7H169/PTQ8n21JTXWM1NTVuPmUHEi07kbhSUlJiJf1L3HTiDlJJFXdIttFeaSfb5eXlwSoAeiOfbGtQsi0jR45xyXY8fnn0bu5HJEETPB30hulARidqdCIHEB2Q6ERNvLISpjJD2UGYLzt6DCPuIJV04w6QrrST7VGjRgWrAOhtfPLsa7Z1aYlvRg5kIvZAxuNEDSTZiZpEB72UHUh7TvJ5lB1IJnEHSIVkG0BK/kAkXrIdbkbuceACSXTgEtucM4yyA0lUdmKbkYdRdiDEHWSKuINMJYs7JNsAUvI/JsmS7T6Rf3m1BbZrR7M11rc0NQfyCvIst19fayyut92RfxJ70Kuy06eqr9VX7bLGOsoOWuQV5llBaa7tLm2Olp3Yg17iDuIh7iBTxB1kKlHcIdkGkFKqZFs/PLnbC2x7TaXllPW13MIcF0TQu6m87KprsqbtzVZWMsB2lbX8AIUPelV2dn/Q16rqKi1/UL7lFeVSdtASa3busoaKBistHGB9hrUc+IYPeok7iIe4g0wRd5CpZHEnVbLNvRAApKQzvPrhyR+aawUl+fzwwFE5UHlQuVD5UDmJpZolHfAWjyyywn70CIwWKgcqDyoXKh8qJ7GIO4iHuINMEXeQqXTiTiIk2wBSUlMqd4Y3LzeYAuyhcqHyoXISS004VbNE2UE8KhcqHyonsYg7SIa4g0wRd5CpZHEnEZJtAEmpibmuWVJTKiARlQ+VE5UXz5WdukbXhBNIROVD5aRN2SHuIAXiDjJF3EGm4sWdZEi2ASTle+GkKRWS8eUj3GsrZQfpoOwgU5QdZIqyg0zFKzvJZNRBWkV1vS1fv83Wbt5hW6rqrGFXei+WSH5uXxtSWmjjhvazQ8YMtEH9028HD6DjdHZOQcN1HhLTQdr2ku1m5bmWMya9M3jovZrW9zEbtcvKaspcR0WVxZVWv6bJiifmB0sA8dWuarCC8Tk2oHaA66iIuIN0EXeQKeIOMhWOO1nvIG3BsnKb++QKe3HFB1ZeUdvhRFu0DW1L29S29RoAAAAAAHRXaSfbO3Y22j3PrLLFq7cEUzqPXkOvpdcEAAAAAKC7STvZfnDRWlf7vLfotfSaAAAAAAB0N2kl22rWnSzR3r272Rob6luu+dzVaE1NbbvS17T6nTXReVpHyzbU1dquxoa4PbrpNWlSDgAAAADoblIm2+oMLVnTcSXJO3dU2dq3l1p15Rbb9O6/rOK99a0Sbj3fvGGNvfHSU7alfJ1Lsmurt9vGd96yN19+2srXrLDmOAm66LW1DwAAAAAAdBcpk231Op6IEu3G+p02YViR3XD5v9sR44faZeefbBecfpTtbm6KLqMa7VnHTbI/3fJt++SMqbYrkmzvP7CvfeGs423u/3zNvjz7tLg1216yfQAAAAAAoKtJmWzr9l6JNNbX2YZVb1p+U00kgd5l76x8y4oLcu3ddRusurIi2qx8QG6DHTpprPXp08cs8l9Obp6defJRNn7MKMvPzwu2lliyfQAAAAAAoKtJmWzrPtqJjB812H5w+aftvI+dZEMGldnXv3C+jR4xzGaecoyde+qRbpkd2yvs2Cn7uXuO1Te09C6upPt3C1baglfXWOOulhrwZJLtAwAAAAAAXU3KZDvZfbTXb662Wx9YaKvXv2evr9poTy56yzZvq7J7n3rDFry+0TUfP3hUsR1y4DhbuWGrNSdpKp5MNu7lDQAAAADA3pIy2c7Pjb+IehNXh2g7N79j/QrzbMOGjZbbXGc7dtTY8y++ZLXV1da3doudPG2yVVTttHc2bomsFPmvqdka6+uTXqMdK9E+AAAAAADQFaXMYoeUFgbPWuvTp6+deeKhdv3lF9rI4UPsjFOm24zjp9m40SPs5qs+Z1MnDrfzZhxpJUUF9oe/PGyb1q2KrLXbaqq3Wfk7b7lrudOlfVBy3l0GAAAAAEDvljLZHje0X/CsrWeXv2fPvbbGtlbusD8teMM+2FZlLyzfYHc89rY1NOfYmFHDbfCAUvv2ly+0r37+fCsqLLCPnHi0ff8rn7Kc3NxgK6mNHVLiOlvrDoOSbf8IAAAAAOidUibbh4wZGDxrq29Ojo0cPtia++Ra/7IyKy4qtu31u10HaO9vr7MFr2+y+YvX2fyX17nO0OoaGu21lRvt6eWbXM14n76RIbId96ieyhOYOKzYGhoauvTQ2NgYHZqamqLJd0/EyQQAAAAASK5PJGnaXV5ebqNGjQomtbVgWbktXr0lGMvMwWMG2OlT97O3NlTaY0s3tppWXlFjf35+TdyEe+rYgfahKcOCse7jjjt+YX2DkwjJTiR0R3l5edavXz8bMWKETZo0ycaPHx/MQXflW2ToRJFOGG3dutUGDx5utbVVtr1ku1l5ruWM4QQLkmtaH4l1o3ZZWU2ZFRYWWmVxpdWvabLiifnBEkB8tasarGB8jg2oHWB1dXXEHaSNuINMEXeQqXDcKS4utfLydVZUVOQG3YFLuVJOTk5LLphOsi33PLMqkhTXBmN7x6hBxfbZUyYGY91HTU293XbbLZabG/nCRj7onpZsi5IzUaE67rjj7PDDD3fj6J5ItpENHPQiUxz0IlPEHWSKuINMtSfZTrub73Omj3PJ796i19JrdldKXPLz813g1wdfXFzcYwZfmFSQdu7caS+99JKtWbMmeOcAAAAAgLST7X5Fea6W+egJQ4IpnUevodfSa3ZnOqOhhFQ13D1p0HvyJxJ09kYJ98qVK4N3DQAAAABIO9n2Zhw+yuZ8ZLIdP3mYq33Oxj2wtQ1tS9vUtvUa3Z1vZu2v2e6Jg04mKOlW8v3++++79wsAAAAASLODtEz4a0DVU3dtba0VFvazkpKCYG7Ppmu2b731JzZgwABX++uT055If2dd46va7csvvzyYiu7Gf1+5ZhsdwbWTyBTXTiJTxB1kiriDTHXKNdtAPDqJoIIEAAAAANiDLAkAAAAAgCwj2QYAAAAAIMu6bLK9aNFiO/XUmbZq1TvBlD00bfbsC+POaw+tr9cYOnR/u/LKa9z1GhUV2yLbvshNCw/33/9gsBYAAAAAAMl16ZrtSZMm2NKly4KxPZ588h9WVlYWjGVGSfWPfvRTmzv3Ntu8+V0bOXKEzZ//qA0aNNDmzbvLTdOwYsWrdvHFn7EZM04J1uzaTjjhhMj+XuweAQAAAAD7RpdOtsvKSu2llxa5xNjT85qaGpsy5cBgSmZWrVptkydPsokTD3DjZ589y5Yvf8vVboctWPCMHXfcdJeEd3Wnn366TZo0KRgDAAAAAOwrXfbWX2pG/txzL7jnJ510gk2ffrR7rubc2t6aNWvtggv+3SXLmnbppV9z80877WS7445bXHKs6Vu2bHUJ87HHHm1XXLHn1lS+Wfj555/jHpXE33DDj+2aa74ZTayVeN9226/t85+/sF3J9r649Zdqsvfff39326bi4mJbuXKlvfBCy+fX2Xbt2uVOgHDrr+6rp976a1fjLnvhHwvtzddWBFNaO/eCWTZ81DBb+eZqe+rhZ4KpZsd8aJoddfwRwZjZztq6yPynbcO75W588NBB9tF/m2EDBpW6cbTgFjwt1r2z3n7z098HY62N2G+E/fsXzrMhwwYHUyDcgqet15e8aQ/+YX4wZnbqGR+ykz5Kq7VYxJ0WLXHnzmCstRH7DSfuxEHcQabac+uvLp9sq8b5D3/4s/3Xf33dTVfy++lPf9J+85vfR5PtsHASrefz5v01mnyHpZNs+30IJ+np2Jf32T777LPd65Jsoz16arKdiJLrTRvesxNOO9Zy83Jtzcq1Nmb//dxzn1iPHD0imnBXVlRFynlj9EBF6y9d9DoJdwwOepN7+tHn3OOpZ5zkHrEHB72tPffEC+7k3jmfOdOKSoqCqYiHuJMccScx4s4eO2t32t//8ritXbXejQ8dMcRmzT7DBg4e4MbRWnuS7S7fG/no0S0nATZsKLdly95wz2MTZyXKvlMz1XCvXbsumGOR6ee1q1Y6bMmS11yyD6DnUDK9YvlKm3zoJJdcy/hJ46LPi4oLbfIhk6ymusbVjIsS6nCNwOhIYl5UUmj1kR9nIB1bPthqa1evt0OnHRxMAeLb8O5GEm1kheLOunc2EHeQUt3Oetdy5hvXfdkNx5w4zebPe9S2ba0MlkCmunyyrbOUM2d+1B56aH7c5FeJ9tVXf89uuOG/XYdmDz98fzAnubFjR7dKyrWd/v37W3Fxyw+bxlVb65N9AD2DDmRLy/q7puDZoqT82ceft7deW+Ee7/jxb93wfvkHLrmff9+jraZ5qjG/7/cPRudpXZ/go2d5Y8mbNm7CmFYnbWprau2u2/9o3/3K991w242/cQfH6L30/X9t8Rs2ev9RSRPtnTU77Y+/ud++f8WP3PCbn/zetm6uCOYCLRR3xh4wOkHc+YEbiDsQ1WAPGzE0GDMbN3GMFfcrcjXe6Jgun2zLxIkTbOHCxa5Ts9jkV0mx+Nprf513KtrmihUro7cPUzJ/yCEHueRe9FrixwF0f/FqtWMpAVYT8WTLvPna23ET9jdefcsOP/owu+SbX7APn3mKPfCH+e7M8Ic+fEJ02svPL3H7oeGfT71gJ5/eMm/O1y6yocOHBFtCTxKvVltJ1ZN/e9qmHnOYff/n33XDjI+fHMxFb9XY0GhV26pda5tEVHYWPPKsHXrUwfbdm69yw8mnnxjMBVrEq9VuHXe+4wb9LgHpUC333b/8k/3k2l+44cm//cOadjUFc5FIt0i2lUirObiG2ORX12yrV/HJk490zcjTpW3OmXOxHX/8jOh6/vptWbdug40bNzYYA9ATVFVWxU2Sw7XPSoB1nZI6TgvTddq+Blrb0MFtbDJ+xPTDotdwq6m5aqdip4n2o76uwdSVQ0EQ07Stg6ZOTpjgo/vauHaTqzUYMHDPLSsrt213By77jRsZTDE76PDJdGDUy9XW7nR9aEi45vrh+x+LtnrZHokf2yuqbNSYEW5cdHIwm6110P0p7gwYVNYm7lRWbG8Vd6YcdiBxB2289vLrVjag1IaPbDkWUg33gr8/Yx+edYprZv7V715qw4J5SK7LJtvqfTzcMZkSYd8juRLua6/9VrRzNC3n74ut5349rRNOoGNpe+H1wlKtC6B70YHqijdWuo7PYhNaXac965NnBLXPp7oO0mKbdE86eIKbr0GUdIebhCdSOqB/8Kw1JeDqmfpP/3u/vfLi0mAqeho12dRBi066hMudDoCVgP/9/sfdMoBXs6PGHvnrE3b6OTNcrfW3bvyGm/7YQ0+5mKQD4LJI/Hj8wQWuOTkQK1ncUQJO3EE8by/7V7TWesDAAfaRs06znNwcN0/XdEtRcLmtph9+9CHR+UisW9RsI30PPfSQ3XnnnXutJ3Kgu9hRXWvVVdU2NHRNUjxKvNXsW8tqnXiUeOv2YBvWttwKLFPq7VzNx9UZm5J3ku6eZ8v7LddCDhneuuZIB8Af/8Tp7sD3h1ffzHWTaGXmeR+N1lSrrBx3yjGuNlu12hr/2NkfttKB/e2m7/2c67XRRnpx5yfEHbQy5fADox2kiZLu8vWb3HOdHN5v7Ej73a332EvPLHLTkB6SbQC9wub3Nlv/0v7Wr39xMKVr0MGPmqTrnt+6HZmatKPneOdf77oOiopL2pY7/e3/7VMfd9drH3LEFLvl+7e7e+Wi91InrYOHDWrTOZqm6xaiviZbZefM8z/mar7VDPj2G+e6zh8BSS/ufCeIO78k7qANJd4nzJjeqmwcd8p013x8R1WNS8RJutNDsg2gx1PTSyWy8ZqQq0M03Wfb07LLFr/eKjFXL+PhJFjNx1/+5xIbPS7zuxXEvi56HjXTVAdFBxyYuj+RD334eDvmxKNs29btwRT0Rnn5eVZQWGDl698LprTw13LH66H8+FOn27Tjp9q2CsoOMok704g7SJuajat5+afmfMI2rtvkruVGciTbAHq8xkgCXbW9Ou710wWF+bZ86VvRzs/m/uwuK+lf0qoDND3eedu90WWeffwF+9R/nN+mE7X2Wvz8q9FtqpdyXS+uZuzoGdSUs7pqhxX3a1u7pKabby1bEYy1dFy0/t2NNnDwns6M0Pso1kw9+lB76elF0abhOgH40jMv25jx+7mm5Zqu/ic8NS0vjxz0DhxE2UHquPP26/8Kxog72GPZK8tbJc5qPv7CgkU29oAxblwdeq56a417jvbpszuivLzcRo3K7v2kdQa2ubnZGhoarLa21goL+1lJSUEwt2erqam3W2/9iQ0YMMB15qamXxp6ql27drl7kl9+eetO5tB9+O9rU1NTJDFttK1bt9rgwcMj390q216yPRJ1cy1nTEsPuUAiTesjcW7ULiurKXOxr7K40urXNFnxxPxgid7ltZffsLWr17lrJGNbVOig98+//au9t3FPDeb/+/rnogc2vU3tqgYrGJ9jA2oHWF1dXa+PO0qo/3r3/0XKR0snjOdcMMsOC27hFDtPPv+VC6J3O+htiDutpRd33g+mKO5cTNwh7rjO0f7+l8eDMbOhI4a4O7PoWm1Rsq1bmW5+b4sb1324VcZ8h2m9TTjuFBeXWnn5OisqKnJDQUGB5eXlWU5OjvXt25dkuzOQbKO7IdlGNnDQi0xx0ItMEXeQKeIOMtWeZJtm5AAAAAAAZBnJNgAAAAAAWUayDQAAAABAlpFsw5kwYYJ96lOfsiOOOCKYAgAAAADIFMk2nNWrV9uf/vQnW7p0qRs/++yz7YQTTnDPAQAAAADtQ7INAAAAAECWceuvTpDJrb9Uk6zlZdOmTfb444+7Jt2HHXaY6zZeVq5caS+88IJ7ruWrq6ttxIgRrnt5zevXr5+NHDnSfe6vv/66q6U+/fTTXdfzmldcXOy2vWPHDps0aZLbjt+mmpFPmzbNlixZYoceemh0X/S3++c//+nWS4Rbf3V/3PoL2cAteJApbsGDTBF3kCniDjLFrb+6GSXEcuedd7rBJ9oHH3ywS5o1TQnv2LFjW11TrUR74cKF9tprr7lkWbTs+++/b+PGjXPjMmTIEJdUaxt6PnToULecpu23334uQQ976KGHrLKy0s2/7777kibaAAAAAIC2SLb3MSW6qnVeu3ZtMKWFaqG3bNkSvYZa11RXVFTYsGHD3Li8++67brpquHVGTs9FNddhSr61HdVSazn/WhpXTSYAAAAAILu6XbJdUbHNZs++yBYtWhxMaXHzzbfa0KH7uyF2nmian6/1tR3v/vsfjM5LtH5nUVKtZgZKmAEAAAAAPUO3SraVUF9yyVdt7NjRwZQWSpZl8+Z37cUXF9jcuXe2SqZFSe369W+7ZWbPPs9+97u7gzlma9eus4cfvt/N0zB9+tHBnM6n2mhd167rpMNU66wm377ZuJqJDxo0yD744AM3DgAAAADourpVsn3FFZfbvHl32ciRI4Ip5ppFL1/+lp199iw3PnHiATZ58iRbtaqlSbV36KEHu44z5IgjDrcdO2rculJSUuIS2X1l0aJFlp+fbxdffLEbdA23mn2rmfjUqVPdtA996EO2bt26aLPyzrZ582bXidonP/nJNtd0AwAAAACS65a9kauG+6STTnA10KrBvuGGH9s113wzkjAPdPN9TbeS6j/84c/2X//19WiiLX7++eef4xLu73znervzznvdtKuv/oZL6jsik97IuzN6I+/+6I0c2UCvwMgUvQIjU8QdZIq4g0zRG3kc+hJdeeU17ppsUaItCsw33XSDaz6uZuabNr0XTcYBAAAAAMhEj0621aT82mu/5RLqcFItSrx9M3JPy+h6bl3DDQAAAABAprp9sl1cXGT9+/dv1SGakuXYTtTCZs06w62zYUN5MAUAAAAAgOzp9sm2aqMPOeQge+ih+W581ap3bMWKlTZx4gT3/LrrfmiVlZX2xhtvuvmybNkb7lZbo0e3vk5dNd3z5v3VXQ8OAAAAAECmekQzctVU61prXY89Z86X7Kqrvh7tLE2UkD/22JPR+2jfdNOtrkM1Tff37db0MWOm2HHHTd+rt/4CAAAAAPQ83bI38q6O3sjR3dAbObKBXoGRKXoFRqaIO8gUcQeZojdyAAAAAAD2IZJtZEV+PmeQAQAAAMAj2UaHqPmxqOkWAAAAAKAFyTY6TNf5jh6d+FZrAAAAANDbkGyjQ1SzrQ4ADjzwwGAKAAAAAGCvJNs9uSfuRHr6e/a9V5eUlNgxxxxjY8eODeYAAAAAADr91l+6jZC608/LKwrm9A6/+MXPrH///q7jsJ54669+/frZ0KFDbcKECSTaPYD/vnLrL3QEt+BBprgFDzJF3EGmiDvIVHtu/dWpybYG3YNZ99pWIa6vr3fjfl5P4hPq3Nxc9yEr4CvR1nhPTLbRs+j7SLKNjuKgF5nioBeZIu4gU8QdZKpLJNuiA3gdvCvB1gG8HnVA7xNt/9jd+URaj/pQlWDrQ9ajPmgSbXR1+i6SbKOjOOhFpjjoRaaIO8gUcQeZ6lLJtj+I94Of1hP5Gmx9sH7w04CuzH9PSbbRERz0IlMc9CJTxB1kiriDTLUn2e7UDtJ8oqkX87W9alrdk4fYGm0SbQAAAADofTq9N3KfcGrwtb1KRHviEFubrQEAAAAA0PvstftshxPQ3jAAAAAAAHqvvZZsAwAAAADQW5BsAwAAAACQZSTbAAAAAABkGck2AAAAAABZRrINAAAAAECWkWwDAAAAAJBlJNsAAAAAAGQZyTYAAAAAAFlGsg0gqb59W8JEU1OTewTi8eXDlxcAAIDejqMiAEn16dPH8grybFcdyTYSU/lQOVF58ZR4N/dptt27gglAHCofKifhEzWu7ET+WdOe8gS0ESkfKidtyg5xBykQd5CxOHEnGZJtACnl9utrTdubbVcjRy9oS+VC5UPlJEyJd05x5KClmgMXJBEpHyon4RM17nlRs+XU5gZTgLZc+YiUk9iyQ9xBSsQdZChe3EmGZBtASo3F9VZWMsAaNu+y+poGmpTDUTlQeVC5UPlQOYmVM7CP1VTWWm5NvvXdnRNMBSIHIJHyoHKh8qFyEmt3vybbWbXTCuuLLbJkMBWIxJVIeVC5UPlQOYlF3EEixB1kKlXcSaTP7oitW7dafn5+MAlAbxMJA9bc3OySp127Igl1fb0NHjzcamurbEfpDrdMn8i/vNoC27Wj2RrrG900QE3HVaOtRHt35J/0q+pnhYWFVt2/2o3XVNdY07ZmG1g02IoKIgcwORz89naKNTvra23bzq2RA96+VtK/xE3vX93f6urqonGntrrWrLqvDSkZakWFlB0EZaeu1rbUbI4UmGYr7l/sphN3kApxB5lKFneKi0utvHydFRUVuaGgoMDy8vJcuVFTc5dsu6UB9FrhZLuxsdEl2wUFJa2S7TC/PHo39yMSpxlV7EGv1NfVW21NrTXUNwRT0NvlF+RbcUmxFRQWBFPaHvSKKzu1lB3s4cpOceuyQ9xBOog7yFSiuJNWsl1eXh6sAqA38smzBiXbMnLkGJdsA5nQQW88nKiBJDpRIzrojYeyA0lWdog7SIa4g0wlKztpJ9vK1AH0Tv7HRDXbakauQc3IP/iAE3HITKKDXiCVRAe9QCrEHWSKuINMDRs2Kkmy3df+f3U9zTibthcMAAAAAElFTkSuQmCC;" vertex="1" parent="1">
          <mxGeometry x="50.999999999999986" y="455" width="856" height="283" as="geometry" />
        </mxCell>
        <mxCell id="bC7OHCeX101TMUWNberd-2" value="ace-demo-pipeline" style="dashed=0;outlineConnect=0;html=1;align=center;labelPosition=center;verticalLabelPosition=bottom;verticalAlign=top;shape=mxgraph.weblogos.github;fontSize=18;fontStyle=0" parent="1" vertex="1">
          <mxGeometry x="40" y="390" width="75" height="75" as="geometry" />
        </mxCell>
        <mxCell id="MoC9TVmtlCLJZs_sMT2R-8" value="" style="edgeStyle=elbowEdgeStyle;elbow=horizontal;endArrow=classic;html=1;curved=0;rounded=0;endSize=8;startSize=8;entryX=0.269;entryY=0.251;entryDx=0;entryDy=0;entryPerimeter=0;strokeWidth=3;" edge="1" parent="1" source="bC7OHCeX101TMUWNberd-2" target="MoC9TVmtlCLJZs_sMT2R-1">
          <mxGeometry width="50" height="50" relative="1" as="geometry">
            <mxPoint x="240" y="200" as="sourcePoint" />
            <mxPoint x="290" y="150" as="targetPoint" />
          </mxGeometry>
        </mxCell>
        <mxCell id="MoC9TVmtlCLJZs_sMT2R-10" value="" style="endArrow=classic;html=1;rounded=0;exitX=1;exitY=0.5;exitDx=0;exitDy=0;strokeWidth=3;entryX=0.089;entryY=0.497;entryDx=0;entryDy=0;entryPerimeter=0;" edge="1" parent="1" source="MoC9TVmtlCLJZs_sMT2R-1" target="MoC9TVmtlCLJZs_sMT2R-11">
          <mxGeometry width="50" height="50" relative="1" as="geometry">
            <mxPoint x="520" y="500" as="sourcePoint" />
            <mxPoint x="1000" y="550.8191423732294" as="targetPoint" />
          </mxGeometry>
        </mxCell>
        <mxCell id="MoC9TVmtlCLJZs_sMT2R-11" value="ACEaaS" style="ellipse;shape=cloud;whiteSpace=wrap;html=1;fontSize=21;fontStyle=0" vertex="1" parent="1">
          <mxGeometry x="940" y="541.5" width="170" height="110" as="geometry" />
        </mxCell>
      </root>
    </mxGraphModel>
  </diagram>
</mxfile>
